<?xml version="1.0" encoding="utf-8" standalone="no"?>
<!DOCTYPE svg PUBLIC "-//W3C//DTD SVG 1.1//EN"
  "http://www.w3.org/Graphics/SVG/1.1/DTD/svg11.dtd">
<svg xmlns:xlink="http://www.w3.org/1999/xlink" width="704.16pt" height="281.775938pt" viewBox="0 0 704.16 281.775938" xmlns="http://www.w3.org/2000/svg" version="1.1">
 <metadata>
  <rdf:RDF xmlns:dc="http://purl.org/dc/elements/1.1/" xmlns:cc="http://creativecommons.org/ns#" xmlns:rdf="http://www.w3.org/1999/02/22-rdf-syntax-ns#">
   <cc:Work>
    <dc:type rdf:resource="http://purl.org/dc/dcmitype/StillImage"/>
    <dc:date>2024-08-13T18:07:20.847593</dc:date>
    <dc:format>image/svg+xml</dc:format>
    <dc:creator>
     <cc:Agent>
      <dc:title>Matplotlib v3.8.0, https://matplotlib.org/</dc:title>
     </cc:Agent>
    </dc:creator>
   </cc:Work>
  </rdf:RDF>
 </metadata>
 <defs>
  <style type="text/css">*{stroke-linejoin: round; stroke-linecap: butt}</style>
 </defs>
 <g id="figure_1">
  <g id="patch_1">
   <path d="M 0 281.775938 
L 704.16 281.775938 
L 704.16 -0 
L 0 -0 
z
" style="fill: #ffffff"/>
  </g>
  <g id="axes_1">
   <g id="patch_2">
    <path d="M 59.57875 193.04875 
L 238.967083 193.04875 
L 238.967083 28.61875 
L 59.57875 28.61875 
z
" style="fill: #ffffff"/>
   </g>
   <g id="matplotlib.axis_1">
    <g id="xtick_1">
     <g id="line2d_1">
      <defs>
       <path id="m268dd733da" d="M 0 0 
L 0 3.5 
" style="stroke: #000000; stroke-width: 0.8"/>
      </defs>
      <g>
       <use xlink:href="#m268dd733da" x="59.57875" y="193.04875" style="stroke: #000000; stroke-width: 0.8"/>
      </g>
     </g>
     <g id="text_1">
      <!-- 0.0 -->
      <g transform="translate(50.715 209.570938) scale(0.14 -0.14)">
       <defs>
        <path id="Calibri-30" d="M 3022 2031 
Q 3022 1566 2948 1181 
Q 2875 797 2704 520 
Q 2534 244 2259 92 
Q 1984 -59 1581 -59 
Q 1200 -59 939 77 
Q 678 213 518 477 
Q 359 741 292 1127 
Q 225 1513 225 2013 
Q 225 2475 300 2861 
Q 375 3247 544 3523 
Q 713 3800 988 3951 
Q 1263 4103 1663 4103 
Q 2047 4103 2308 3967 
Q 2569 3831 2728 3567 
Q 2888 3303 2955 2917 
Q 3022 2531 3022 2031 
z
M 2472 1994 
Q 2472 2297 2450 2537 
Q 2428 2778 2386 2962 
Q 2344 3147 2276 3280 
Q 2209 3413 2115 3498 
Q 2022 3584 1901 3623 
Q 1781 3663 1631 3663 
Q 1366 3663 1200 3538 
Q 1034 3413 939 3194 
Q 844 2975 809 2681 
Q 775 2388 775 2050 
Q 775 1597 822 1280 
Q 869 963 970 763 
Q 1072 563 1230 472 
Q 1388 381 1613 381 
Q 1788 381 1920 437 
Q 2053 494 2148 598 
Q 2244 703 2306 850 
Q 2369 997 2406 1175 
Q 2444 1353 2458 1561 
Q 2472 1769 2472 1994 
z
" transform="scale(0.015625)"/>
        <path id="Calibri-2e" d="M 1144 341 
Q 1144 119 1070 45 
Q 997 -28 803 -28 
Q 616 -28 544 44 
Q 472 116 472 331 
Q 472 553 545 626 
Q 619 700 813 700 
Q 1000 700 1072 628 
Q 1144 556 1144 341 
z
" transform="scale(0.015625)"/>
       </defs>
       <use xlink:href="#Calibri-30"/>
       <use xlink:href="#Calibri-2e" x="50.683594"/>
       <use xlink:href="#Calibri-30" x="75.927734"/>
      </g>
     </g>
    </g>
    <g id="xtick_2">
     <g id="line2d_2">
      <g>
       <use xlink:href="#m268dd733da" x="119.374861" y="193.04875" style="stroke: #000000; stroke-width: 0.8"/>
      </g>
     </g>
     <g id="text_2">
      <!-- 0.1 -->
      <g transform="translate(110.511111 209.570938) scale(0.14 -0.14)">
       <defs>
        <path id="Calibri-31" d="M 2897 213 
Q 2897 153 2887 112 
Q 2878 72 2862 47 
Q 2847 22 2826 11 
Q 2806 0 2784 0 
L 672 0 
Q 650 0 631 11 
Q 613 22 595 47 
Q 578 72 568 112 
Q 559 153 559 213 
Q 559 269 568 309 
Q 578 350 592 376 
Q 606 403 626 417 
Q 647 431 672 431 
L 1516 431 
L 1516 3506 
L 734 3041 
Q 675 3009 639 3003 
Q 603 2997 581 3017 
Q 559 3038 551 3084 
Q 544 3131 544 3203 
Q 544 3256 548 3293 
Q 553 3331 562 3356 
Q 572 3381 589 3400 
Q 606 3419 634 3438 
L 1566 4034 
Q 1578 4044 1597 4050 
Q 1616 4056 1644 4062 
Q 1672 4069 1709 4070 
Q 1747 4072 1803 4072 
Q 1878 4072 1928 4065 
Q 1978 4059 2006 4048 
Q 2034 4038 2043 4020 
Q 2053 4003 2053 3984 
L 2053 431 
L 2784 431 
Q 2809 431 2831 417 
Q 2853 403 2867 376 
Q 2881 350 2889 309 
Q 2897 269 2897 213 
z
" transform="scale(0.015625)"/>
       </defs>
       <use xlink:href="#Calibri-30"/>
       <use xlink:href="#Calibri-2e" x="50.683594"/>
       <use xlink:href="#Calibri-31" x="75.927734"/>
      </g>
     </g>
    </g>
    <g id="xtick_3">
     <g id="line2d_3">
      <g>
       <use xlink:href="#m268dd733da" x="179.170972" y="193.04875" style="stroke: #000000; stroke-width: 0.8"/>
      </g>
     </g>
     <g id="text_3">
      <!-- 0.2 -->
      <g transform="translate(170.307222 209.570938) scale(0.14 -0.14)">
       <defs>
        <path id="Calibri-32" d="M 2888 231 
Q 2888 175 2880 131 
Q 2872 88 2858 58 
Q 2844 28 2820 14 
Q 2797 0 2769 0 
L 534 0 
Q 491 0 458 11 
Q 425 22 401 47 
Q 378 72 367 119 
Q 356 166 356 234 
Q 356 297 361 344 
Q 366 391 381 427 
Q 397 463 420 498 
Q 444 534 481 575 
L 1266 1406 
Q 1538 1694 1702 1922 
Q 1866 2150 1955 2337 
Q 2044 2525 2072 2678 
Q 2100 2831 2100 2966 
Q 2100 3100 2056 3220 
Q 2013 3341 1930 3431 
Q 1847 3522 1722 3575 
Q 1597 3628 1434 3628 
Q 1244 3628 1092 3575 
Q 941 3522 827 3459 
Q 713 3397 636 3344 
Q 559 3291 522 3291 
Q 500 3291 483 3303 
Q 466 3316 455 3344 
Q 444 3372 437 3419 
Q 431 3466 431 3531 
Q 431 3578 434 3612 
Q 438 3647 445 3672 
Q 453 3697 465 3719 
Q 478 3741 515 3773 
Q 553 3806 645 3862 
Q 738 3919 877 3973 
Q 1016 4028 1183 4065 
Q 1350 4103 1534 4103 
Q 1828 4103 2048 4020 
Q 2269 3938 2414 3794 
Q 2559 3650 2631 3459 
Q 2703 3269 2703 3053 
Q 2703 2859 2668 2667 
Q 2634 2475 2523 2251 
Q 2413 2028 2203 1754 
Q 1994 1481 1647 1125 
L 1006 456 
L 2766 456 
Q 2791 456 2814 442 
Q 2838 428 2855 400 
Q 2872 372 2880 330 
Q 2888 288 2888 231 
z
" transform="scale(0.015625)"/>
       </defs>
       <use xlink:href="#Calibri-30"/>
       <use xlink:href="#Calibri-2e" x="50.683594"/>
       <use xlink:href="#Calibri-32" x="75.927734"/>
      </g>
     </g>
    </g>
    <g id="xtick_4">
     <g id="line2d_4">
      <g>
       <use xlink:href="#m268dd733da" x="238.967083" y="193.04875" style="stroke: #000000; stroke-width: 0.8"/>
      </g>
     </g>
     <g id="text_4">
      <!-- 0.3 -->
      <g transform="translate(230.103333 209.570938) scale(0.14 -0.14)">
       <defs>
        <path id="Calibri-33" d="M 2856 1156 
Q 2856 878 2759 654 
Q 2663 431 2481 272 
Q 2300 113 2034 27 
Q 1769 -59 1434 -59 
Q 1231 -59 1054 -26 
Q 878 6 740 51 
Q 603 97 512 145 
Q 422 194 398 216 
Q 375 238 362 259 
Q 350 281 340 312 
Q 331 344 326 389 
Q 322 434 322 500 
Q 322 613 344 656 
Q 366 700 406 700 
Q 434 700 517 650 
Q 600 600 729 542 
Q 859 484 1032 434 
Q 1206 384 1419 384 
Q 1625 384 1781 437 
Q 1938 491 2044 587 
Q 2150 684 2203 817 
Q 2256 950 2256 1106 
Q 2256 1278 2189 1415 
Q 2122 1553 1992 1653 
Q 1863 1753 1673 1806 
Q 1484 1859 1244 1859 
L 859 1859 
Q 834 1859 811 1870 
Q 788 1881 770 1906 
Q 753 1931 742 1972 
Q 731 2013 731 2078 
Q 731 2138 740 2177 
Q 750 2216 767 2239 
Q 784 2263 806 2273 
Q 828 2284 856 2284 
L 1209 2284 
Q 1416 2284 1580 2337 
Q 1744 2391 1858 2491 
Q 1972 2591 2033 2730 
Q 2094 2869 2094 3041 
Q 2094 3166 2053 3280 
Q 2013 3394 1931 3478 
Q 1850 3563 1723 3611 
Q 1597 3659 1431 3659 
Q 1250 3659 1098 3604 
Q 947 3550 828 3487 
Q 709 3425 631 3370 
Q 553 3316 522 3316 
Q 500 3316 483 3323 
Q 466 3331 455 3354 
Q 444 3378 439 3420 
Q 434 3463 434 3531 
Q 434 3578 437 3614 
Q 441 3650 450 3676 
Q 459 3703 471 3725 
Q 484 3747 514 3776 
Q 544 3806 634 3862 
Q 725 3919 858 3973 
Q 991 4028 1164 4065 
Q 1338 4103 1538 4103 
Q 1819 4103 2031 4031 
Q 2244 3959 2386 3828 
Q 2528 3697 2598 3514 
Q 2669 3331 2669 3109 
Q 2669 2919 2619 2755 
Q 2569 2591 2472 2464 
Q 2375 2338 2234 2248 
Q 2094 2159 1909 2125 
L 1909 2119 
Q 2119 2097 2292 2014 
Q 2466 1931 2591 1806 
Q 2716 1681 2786 1514 
Q 2856 1347 2856 1156 
z
" transform="scale(0.015625)"/>
       </defs>
       <use xlink:href="#Calibri-30"/>
       <use xlink:href="#Calibri-2e" x="50.683594"/>
       <use xlink:href="#Calibri-33" x="75.927734"/>
      </g>
     </g>
    </g>
    <g id="text_5">
     <!-- Electricity cost ($/kWh) -->
     <g transform="translate(82.849479 226.470625) scale(0.14 -0.14)">
      <defs>
       <path id="Calibri-45" d="M 2788 222 
Q 2788 166 2781 123 
Q 2775 81 2759 53 
Q 2744 25 2723 12 
Q 2703 0 2678 0 
L 738 0 
Q 666 0 602 48 
Q 538 97 538 219 
L 538 3825 
Q 538 3947 602 3995 
Q 666 4044 738 4044 
L 2656 4044 
Q 2681 4044 2701 4031 
Q 2722 4019 2734 3991 
Q 2747 3963 2755 3920 
Q 2763 3878 2763 3816 
Q 2763 3759 2755 3717 
Q 2747 3675 2734 3648 
Q 2722 3622 2701 3609 
Q 2681 3597 2656 3597 
L 1075 3597 
L 1075 2328 
L 2431 2328 
Q 2456 2328 2476 2314 
Q 2497 2300 2511 2275 
Q 2525 2250 2531 2206 
Q 2538 2163 2538 2103 
Q 2538 2047 2531 2006 
Q 2525 1966 2511 1941 
Q 2497 1916 2476 1905 
Q 2456 1894 2431 1894 
L 1075 1894 
L 1075 447 
L 2678 447 
Q 2703 447 2723 434 
Q 2744 422 2759 395 
Q 2775 369 2781 326 
Q 2788 284 2788 222 
z
" transform="scale(0.015625)"/>
       <path id="Calibri-6c" d="M 994 78 
Q 994 53 981 36 
Q 969 19 941 6 
Q 913 -6 863 -12 
Q 813 -19 734 -19 
Q 659 -19 609 -12 
Q 559 -6 529 6 
Q 500 19 489 36 
Q 478 53 478 78 
L 478 4253 
Q 478 4278 489 4297 
Q 500 4316 529 4328 
Q 559 4341 609 4347 
Q 659 4353 734 4353 
Q 813 4353 863 4347 
Q 913 4341 941 4328 
Q 969 4316 981 4297 
Q 994 4278 994 4253 
L 994 78 
z
" transform="scale(0.015625)"/>
       <path id="Calibri-65" d="M 2878 1606 
Q 2878 1484 2817 1432 
Q 2756 1381 2678 1381 
L 834 1381 
Q 834 1147 881 959 
Q 928 772 1037 637 
Q 1147 503 1322 431 
Q 1497 359 1750 359 
Q 1950 359 2106 392 
Q 2263 425 2377 465 
Q 2491 506 2564 539 
Q 2638 572 2675 572 
Q 2697 572 2714 561 
Q 2731 550 2740 528 
Q 2750 506 2754 467 
Q 2759 428 2759 372 
Q 2759 331 2756 301 
Q 2753 272 2748 248 
Q 2744 225 2733 206 
Q 2722 188 2705 170 
Q 2688 153 2603 114 
Q 2519 75 2384 37 
Q 2250 0 2073 -29 
Q 1897 -59 1697 -59 
Q 1350 -59 1089 37 
Q 828 134 650 325 
Q 472 516 381 803 
Q 291 1091 291 1472 
Q 291 1834 384 2123 
Q 478 2413 654 2614 
Q 831 2816 1081 2923 
Q 1331 3031 1641 3031 
Q 1972 3031 2205 2925 
Q 2438 2819 2588 2639 
Q 2738 2459 2808 2217 
Q 2878 1975 2878 1700 
L 2878 1606 
z
M 2359 1759 
Q 2369 2166 2180 2397 
Q 1991 2628 1619 2628 
Q 1428 2628 1284 2556 
Q 1141 2484 1044 2365 
Q 947 2247 894 2089 
Q 841 1931 834 1759 
L 2359 1759 
z
" transform="scale(0.015625)"/>
       <path id="Calibri-63" d="M 2500 506 
Q 2500 453 2497 414 
Q 2494 375 2486 348 
Q 2478 322 2467 301 
Q 2456 281 2417 242 
Q 2378 203 2284 145 
Q 2191 88 2073 42 
Q 1956 -3 1818 -31 
Q 1681 -59 1534 -59 
Q 1231 -59 997 41 
Q 763 141 605 333 
Q 447 525 364 804 
Q 281 1084 281 1450 
Q 281 1866 382 2164 
Q 484 2463 661 2653 
Q 838 2844 1077 2936 
Q 1316 3028 1594 3028 
Q 1728 3028 1854 3003 
Q 1981 2978 2087 2937 
Q 2194 2897 2276 2844 
Q 2359 2791 2396 2753 
Q 2434 2716 2448 2694 
Q 2463 2672 2472 2642 
Q 2481 2613 2484 2575 
Q 2488 2538 2488 2481 
Q 2488 2359 2459 2311 
Q 2431 2263 2391 2263 
Q 2344 2263 2283 2314 
Q 2222 2366 2128 2428 
Q 2034 2491 1901 2542 
Q 1769 2594 1588 2594 
Q 1216 2594 1017 2308 
Q 819 2022 819 1478 
Q 819 1206 870 1001 
Q 922 797 1022 659 
Q 1122 522 1267 455 
Q 1413 388 1600 388 
Q 1778 388 1912 444 
Q 2047 500 2145 567 
Q 2244 634 2311 689 
Q 2378 744 2416 744 
Q 2438 744 2453 731 
Q 2469 719 2480 689 
Q 2491 659 2495 614 
Q 2500 569 2500 506 
z
" transform="scale(0.015625)"/>
       <path id="Calibri-74" d="M 1941 284 
Q 1941 194 1928 141 
Q 1916 88 1891 63 
Q 1866 38 1816 16 
Q 1766 -6 1702 -20 
Q 1638 -34 1566 -43 
Q 1494 -53 1422 -53 
Q 1203 -53 1047 5 
Q 891 63 791 180 
Q 691 297 645 476 
Q 600 656 600 900 
L 600 2544 
L 206 2544 
Q 159 2544 131 2594 
Q 103 2644 103 2756 
Q 103 2816 111 2856 
Q 119 2897 131 2923 
Q 144 2950 164 2961 
Q 184 2972 209 2972 
L 600 2972 
L 600 3641 
Q 600 3663 611 3681 
Q 622 3700 651 3714 
Q 681 3728 731 3734 
Q 781 3741 856 3741 
Q 934 3741 984 3734 
Q 1034 3728 1062 3714 
Q 1091 3700 1103 3681 
Q 1116 3663 1116 3641 
L 1116 2972 
L 1838 2972 
Q 1863 2972 1881 2961 
Q 1900 2950 1914 2923 
Q 1928 2897 1934 2856 
Q 1941 2816 1941 2756 
Q 1941 2644 1912 2594 
Q 1884 2544 1838 2544 
L 1116 2544 
L 1116 975 
Q 1116 684 1202 536 
Q 1288 388 1509 388 
Q 1581 388 1637 402 
Q 1694 416 1737 431 
Q 1781 447 1812 461 
Q 1844 475 1869 475 
Q 1884 475 1898 467 
Q 1913 459 1920 437 
Q 1928 416 1934 378 
Q 1941 341 1941 284 
z
" transform="scale(0.015625)"/>
       <path id="Calibri-72" d="M 2122 2706 
Q 2122 2638 2119 2591 
Q 2116 2544 2106 2517 
Q 2097 2491 2083 2477 
Q 2069 2463 2044 2463 
Q 2019 2463 1983 2477 
Q 1947 2491 1901 2505 
Q 1856 2519 1800 2531 
Q 1744 2544 1678 2544 
Q 1600 2544 1525 2512 
Q 1450 2481 1367 2409 
Q 1284 2338 1193 2219 
Q 1103 2100 994 1928 
L 994 78 
Q 994 53 981 36 
Q 969 19 941 6 
Q 913 -6 863 -12 
Q 813 -19 734 -19 
Q 659 -19 609 -12 
Q 559 -6 529 6 
Q 500 19 489 36 
Q 478 53 478 78 
L 478 2891 
Q 478 2916 487 2933 
Q 497 2950 525 2964 
Q 553 2978 597 2983 
Q 641 2988 713 2988 
Q 781 2988 826 2983 
Q 872 2978 897 2964 
Q 922 2950 933 2933 
Q 944 2916 944 2891 
L 944 2481 
Q 1059 2650 1161 2756 
Q 1263 2863 1353 2923 
Q 1444 2984 1533 3007 
Q 1622 3031 1713 3031 
Q 1753 3031 1804 3026 
Q 1856 3022 1912 3009 
Q 1969 2997 2014 2981 
Q 2059 2966 2078 2950 
Q 2097 2934 2103 2920 
Q 2109 2906 2114 2884 
Q 2119 2863 2120 2820 
Q 2122 2778 2122 2706 
z
" transform="scale(0.015625)"/>
       <path id="Calibri-69" d="M 994 78 
Q 994 53 981 36 
Q 969 19 941 6 
Q 913 -6 863 -12 
Q 813 -19 734 -19 
Q 659 -19 609 -12 
Q 559 -6 529 6 
Q 500 19 489 36 
Q 478 53 478 78 
L 478 2891 
Q 478 2913 489 2931 
Q 500 2950 529 2962 
Q 559 2975 609 2981 
Q 659 2988 734 2988 
Q 813 2988 863 2981 
Q 913 2975 941 2962 
Q 969 2950 981 2931 
Q 994 2913 994 2891 
L 994 78 
z
M 1053 3841 
Q 1053 3659 984 3593 
Q 916 3528 731 3528 
Q 550 3528 483 3592 
Q 416 3656 416 3834 
Q 416 4016 484 4081 
Q 553 4147 738 4147 
Q 919 4147 986 4083 
Q 1053 4019 1053 3841 
z
" transform="scale(0.015625)"/>
       <path id="Calibri-79" d="M 1759 0 
L 1384 -1034 
Q 1366 -1084 1289 -1111 
Q 1213 -1138 1056 -1138 
Q 975 -1138 925 -1130 
Q 875 -1122 848 -1103 
Q 822 -1084 819 -1053 
Q 816 -1022 834 -978 
L 1222 0 
Q 1194 13 1169 41 
Q 1144 69 1134 100 
L 131 2788 
Q 106 2853 106 2890 
Q 106 2928 131 2950 
Q 156 2972 212 2980 
Q 269 2988 363 2988 
Q 456 2988 509 2983 
Q 563 2978 594 2965 
Q 625 2953 639 2929 
Q 653 2906 669 2866 
L 1472 609 
L 1481 609 
L 2256 2878 
Q 2275 2938 2301 2955 
Q 2328 2972 2381 2980 
Q 2434 2988 2534 2988 
Q 2622 2988 2678 2980 
Q 2734 2972 2761 2950 
Q 2788 2928 2788 2890 
Q 2788 2853 2769 2797 
L 1759 0 
z
" transform="scale(0.015625)"/>
       <path id="Calibri-20" transform="scale(0.015625)"/>
       <path id="Calibri-6f" d="M 3094 1516 
Q 3094 1172 3003 883 
Q 2913 594 2733 384 
Q 2553 175 2283 58 
Q 2013 -59 1656 -59 
Q 1309 -59 1051 44 
Q 794 147 622 344 
Q 450 541 365 822 
Q 281 1103 281 1459 
Q 281 1803 370 2092 
Q 459 2381 639 2590 
Q 819 2800 1087 2915 
Q 1356 3031 1716 3031 
Q 2063 3031 2320 2928 
Q 2578 2825 2750 2628 
Q 2922 2431 3008 2150 
Q 3094 1869 3094 1516 
z
M 2550 1481 
Q 2550 1709 2508 1912 
Q 2466 2116 2369 2269 
Q 2272 2422 2106 2511 
Q 1941 2600 1694 2600 
Q 1466 2600 1302 2519 
Q 1138 2438 1031 2289 
Q 925 2141 873 1937 
Q 822 1734 822 1494 
Q 822 1263 864 1059 
Q 906 856 1004 704 
Q 1103 553 1268 464 
Q 1434 375 1681 375 
Q 1906 375 2072 456 
Q 2238 538 2344 684 
Q 2450 831 2500 1034 
Q 2550 1238 2550 1481 
z
" transform="scale(0.015625)"/>
       <path id="Calibri-73" d="M 2244 844 
Q 2244 628 2164 459 
Q 2084 291 1937 175 
Q 1791 59 1587 0 
Q 1384 -59 1141 -59 
Q 991 -59 855 -36 
Q 719 -13 611 23 
Q 503 59 428 98 
Q 353 138 318 169 
Q 284 200 268 256 
Q 253 313 253 409 
Q 253 469 259 509 
Q 266 550 275 575 
Q 284 600 301 611 
Q 319 622 341 622 
Q 375 622 442 580 
Q 509 538 607 488 
Q 706 438 840 395 
Q 975 353 1150 353 
Q 1281 353 1387 381 
Q 1494 409 1572 464 
Q 1650 519 1692 603 
Q 1734 688 1734 803 
Q 1734 922 1673 1003 
Q 1613 1084 1513 1146 
Q 1413 1209 1288 1257 
Q 1163 1306 1030 1359 
Q 897 1413 770 1480 
Q 644 1547 544 1644 
Q 444 1741 383 1875 
Q 322 2009 322 2197 
Q 322 2363 386 2514 
Q 450 2666 578 2780 
Q 706 2894 898 2962 
Q 1091 3031 1347 3031 
Q 1459 3031 1571 3012 
Q 1684 2994 1775 2966 
Q 1866 2938 1930 2905 
Q 1994 2872 2026 2847 
Q 2059 2822 2070 2803 
Q 2081 2784 2086 2761 
Q 2091 2738 2095 2703 
Q 2100 2669 2100 2619 
Q 2100 2566 2095 2527 
Q 2091 2488 2080 2463 
Q 2069 2438 2053 2427 
Q 2038 2416 2019 2416 
Q 1991 2416 1937 2450 
Q 1884 2484 1800 2523 
Q 1716 2563 1602 2597 
Q 1488 2631 1341 2631 
Q 1209 2631 1109 2601 
Q 1009 2572 945 2517 
Q 881 2463 848 2388 
Q 816 2313 816 2225 
Q 816 2103 878 2020 
Q 941 1938 1041 1875 
Q 1141 1813 1269 1763 
Q 1397 1713 1530 1659 
Q 1663 1606 1792 1540 
Q 1922 1475 2022 1381 
Q 2122 1288 2183 1156 
Q 2244 1025 2244 844 
z
" transform="scale(0.015625)"/>
       <path id="Calibri-28" d="M 1547 4306 
Q 1250 3678 1104 3017 
Q 959 2356 959 1688 
Q 959 1016 1107 356 
Q 1256 -303 1541 -938 
Q 1556 -975 1557 -1001 
Q 1559 -1028 1537 -1045 
Q 1516 -1063 1470 -1070 
Q 1425 -1078 1347 -1078 
Q 1291 -1078 1250 -1075 
Q 1209 -1072 1179 -1062 
Q 1150 -1053 1131 -1040 
Q 1113 -1028 1103 -1013 
Q 934 -694 806 -367 
Q 678 -41 590 296 
Q 503 634 459 979 
Q 416 1325 416 1678 
Q 416 2031 464 2375 
Q 513 2719 602 3058 
Q 691 3397 819 3725 
Q 947 4053 1106 4375 
Q 1109 4388 1123 4397 
Q 1138 4406 1163 4415 
Q 1188 4425 1231 4429 
Q 1275 4434 1344 4434 
Q 1416 4434 1459 4425 
Q 1503 4416 1528 4400 
Q 1553 4384 1556 4359 
Q 1559 4334 1547 4306 
z
" transform="scale(0.015625)"/>
       <path id="Calibri-24" d="M 2913 1144 
Q 2913 894 2817 689 
Q 2722 484 2547 337 
Q 2372 191 2119 103 
Q 1866 16 1553 0 
L 1484 -678 
Q 1481 -697 1473 -714 
Q 1466 -731 1444 -742 
Q 1422 -753 1383 -759 
Q 1344 -766 1281 -766 
Q 1209 -766 1167 -758 
Q 1125 -750 1100 -739 
Q 1075 -728 1067 -708 
Q 1059 -688 1066 -663 
L 1138 13 
Q 988 31 859 61 
Q 731 91 631 125 
Q 531 159 461 196 
Q 391 234 358 267 
Q 325 300 312 353 
Q 300 406 300 500 
Q 300 569 306 614 
Q 313 659 325 689 
Q 338 719 358 730 
Q 378 741 406 741 
Q 447 741 522 695 
Q 597 650 720 595 
Q 844 541 1022 494 
Q 1200 447 1450 447 
Q 1894 447 2123 622 
Q 2353 797 2353 1097 
Q 2353 1281 2268 1404 
Q 2184 1528 2045 1617 
Q 1906 1706 1729 1770 
Q 1553 1834 1370 1900 
Q 1188 1966 1011 2050 
Q 834 2134 696 2259 
Q 559 2384 475 2564 
Q 391 2744 391 3006 
Q 391 3216 462 3397 
Q 534 3578 678 3714 
Q 822 3850 1040 3936 
Q 1259 4022 1550 4041 
L 1613 4672 
Q 1616 4691 1623 4708 
Q 1631 4725 1653 4737 
Q 1675 4750 1712 4754 
Q 1750 4759 1816 4759 
Q 1884 4759 1929 4753 
Q 1975 4747 1998 4733 
Q 2022 4719 2028 4700 
Q 2034 4681 2034 4656 
L 1966 4031 
Q 2059 4022 2161 3998 
Q 2263 3975 2352 3945 
Q 2441 3916 2512 3880 
Q 2584 3844 2611 3819 
Q 2638 3794 2648 3772 
Q 2659 3750 2665 3722 
Q 2672 3694 2676 3656 
Q 2681 3619 2681 3572 
Q 2681 3513 2676 3469 
Q 2672 3425 2662 3400 
Q 2653 3375 2637 3362 
Q 2622 3350 2600 3350 
Q 2566 3350 2491 3390 
Q 2416 3431 2302 3478 
Q 2188 3525 2038 3565 
Q 1888 3606 1703 3606 
Q 1494 3606 1345 3565 
Q 1197 3525 1105 3451 
Q 1013 3378 970 3275 
Q 928 3172 928 3050 
Q 928 2863 1014 2738 
Q 1100 2613 1239 2525 
Q 1378 2438 1556 2375 
Q 1734 2313 1920 2245 
Q 2106 2178 2284 2097 
Q 2463 2016 2602 1891 
Q 2741 1766 2827 1586 
Q 2913 1406 2913 1144 
z
" transform="scale(0.015625)"/>
       <path id="Calibri-2f" d="M 525 -753 
Q 513 -794 492 -817 
Q 472 -841 440 -853 
Q 409 -866 364 -872 
Q 319 -878 253 -878 
Q 175 -878 123 -867 
Q 72 -856 44 -836 
Q 16 -816 9 -786 
Q 3 -756 22 -716 
L 1913 4469 
Q 1925 4509 1945 4532 
Q 1966 4556 1995 4570 
Q 2025 4584 2072 4589 
Q 2119 4594 2184 4594 
Q 2263 4594 2313 4583 
Q 2363 4572 2391 4553 
Q 2419 4534 2425 4503 
Q 2431 4472 2416 4431 
L 525 -753 
z
" transform="scale(0.015625)"/>
       <path id="Calibri-6b" d="M 2788 81 
Q 2788 56 2775 37 
Q 2763 19 2733 6 
Q 2703 -6 2650 -12 
Q 2597 -19 2516 -19 
Q 2431 -19 2376 -14 
Q 2322 -9 2284 2 
Q 2247 13 2223 33 
Q 2200 53 2181 81 
L 994 1638 
L 994 78 
Q 994 53 981 36 
Q 969 19 941 6 
Q 913 -6 863 -12 
Q 813 -19 734 -19 
Q 659 -19 609 -12 
Q 559 -6 529 6 
Q 500 19 489 36 
Q 478 53 478 78 
L 478 4253 
Q 478 4278 489 4297 
Q 500 4316 529 4328 
Q 559 4341 609 4347 
Q 659 4353 734 4353 
Q 813 4353 863 4347 
Q 913 4341 941 4328 
Q 969 4316 981 4297 
Q 994 4278 994 4253 
L 994 1709 
L 2056 2878 
Q 2081 2909 2109 2929 
Q 2138 2950 2177 2964 
Q 2216 2978 2269 2983 
Q 2322 2988 2397 2988 
Q 2475 2988 2528 2983 
Q 2581 2978 2614 2967 
Q 2647 2956 2661 2939 
Q 2675 2922 2675 2894 
Q 2675 2856 2654 2818 
Q 2634 2781 2588 2731 
L 1569 1713 
L 2713 228 
Q 2753 175 2770 142 
Q 2788 109 2788 81 
z
" transform="scale(0.015625)"/>
       <path id="Calibri-57" d="M 4409 119 
Q 4397 75 4372 48 
Q 4347 22 4303 8 
Q 4259 -6 4195 -12 
Q 4131 -19 4038 -19 
Q 3941 -19 3873 -12 
Q 3806 -6 3762 8 
Q 3719 22 3697 48 
Q 3675 75 3663 119 
L 2816 3172 
L 2809 3172 
L 2028 119 
Q 2019 75 1997 48 
Q 1975 22 1934 8 
Q 1894 -6 1830 -12 
Q 1766 -19 1666 -19 
Q 1563 -19 1494 -12 
Q 1425 -6 1381 8 
Q 1338 22 1314 48 
Q 1291 75 1281 119 
L 213 3853 
Q 194 3925 192 3965 
Q 191 4006 217 4028 
Q 244 4050 303 4056 
Q 363 4063 463 4063 
Q 559 4063 615 4058 
Q 672 4053 701 4040 
Q 731 4028 742 4006 
Q 753 3984 759 3950 
L 1669 563 
L 1672 563 
L 2534 3944 
Q 2544 3978 2558 4001 
Q 2572 4025 2603 4037 
Q 2634 4050 2692 4056 
Q 2750 4063 2844 4063 
Q 2931 4063 2982 4056 
Q 3034 4050 3065 4037 
Q 3097 4025 3111 4001 
Q 3125 3978 3134 3944 
L 4063 563 
L 4069 563 
L 4959 3947 
Q 4969 3978 4978 4001 
Q 4988 4025 5017 4037 
Q 5047 4050 5101 4056 
Q 5156 4063 5247 4063 
Q 5341 4063 5395 4055 
Q 5450 4047 5475 4025 
Q 5500 4003 5498 3962 
Q 5497 3922 5481 3850 
L 4409 119 
z
" transform="scale(0.015625)"/>
       <path id="Calibri-68" d="M 2900 78 
Q 2900 53 2887 36 
Q 2875 19 2847 6 
Q 2819 -6 2769 -12 
Q 2719 -19 2644 -19 
Q 2566 -19 2516 -12 
Q 2466 -6 2437 6 
Q 2409 19 2396 36 
Q 2384 53 2384 78 
L 2384 1725 
Q 2384 1966 2346 2112 
Q 2309 2259 2237 2365 
Q 2166 2472 2052 2528 
Q 1938 2584 1788 2584 
Q 1594 2584 1400 2446 
Q 1206 2309 994 2044 
L 994 78 
Q 994 53 981 36 
Q 969 19 941 6 
Q 913 -6 863 -12 
Q 813 -19 734 -19 
Q 659 -19 609 -12 
Q 559 -6 529 6 
Q 500 19 489 36 
Q 478 53 478 78 
L 478 4253 
Q 478 4278 489 4297 
Q 500 4316 529 4328 
Q 559 4341 609 4347 
Q 659 4353 734 4353 
Q 813 4353 863 4347 
Q 913 4341 941 4328 
Q 969 4316 981 4297 
Q 994 4278 994 4253 
L 994 2569 
Q 1216 2803 1441 2917 
Q 1666 3031 1894 3031 
Q 2175 3031 2367 2936 
Q 2559 2841 2678 2681 
Q 2797 2522 2848 2308 
Q 2900 2094 2900 1791 
L 2900 78 
z
" transform="scale(0.015625)"/>
       <path id="Calibri-29" d="M 1522 1678 
Q 1522 1325 1478 979 
Q 1434 634 1346 296 
Q 1259 -41 1132 -367 
Q 1006 -694 838 -1013 
Q 828 -1028 809 -1040 
Q 791 -1053 761 -1062 
Q 731 -1072 690 -1075 
Q 650 -1078 594 -1078 
Q 513 -1078 467 -1070 
Q 422 -1063 401 -1045 
Q 381 -1028 382 -1001 
Q 384 -975 400 -938 
Q 688 -306 834 355 
Q 981 1016 981 1688 
Q 981 2356 834 3017 
Q 688 3678 394 4306 
Q 381 4334 384 4359 
Q 388 4384 413 4400 
Q 438 4416 481 4425 
Q 525 4434 597 4434 
Q 663 4434 706 4429 
Q 750 4425 776 4415 
Q 803 4406 815 4397 
Q 828 4388 834 4375 
Q 1156 3734 1339 3057 
Q 1522 2381 1522 1678 
z
" transform="scale(0.015625)"/>
      </defs>
      <use xlink:href="#Calibri-45"/>
      <use xlink:href="#Calibri-6c" x="48.828125"/>
      <use xlink:href="#Calibri-65" x="71.777344"/>
      <use xlink:href="#Calibri-63" x="121.533203"/>
      <use xlink:href="#Calibri-74" x="163.818359"/>
      <use xlink:href="#Calibri-72" x="197.314453"/>
      <use xlink:href="#Calibri-69" x="232.177734"/>
      <use xlink:href="#Calibri-63" x="255.126953"/>
      <use xlink:href="#Calibri-69" x="297.412109"/>
      <use xlink:href="#Calibri-74" x="320.361328"/>
      <use xlink:href="#Calibri-79" x="353.857422"/>
      <use xlink:href="#Calibri-20" x="399.121094"/>
      <use xlink:href="#Calibri-63" x="421.728516"/>
      <use xlink:href="#Calibri-6f" x="464.013672"/>
      <use xlink:href="#Calibri-73" x="516.748047"/>
      <use xlink:href="#Calibri-74" x="555.859375"/>
      <use xlink:href="#Calibri-20" x="589.355469"/>
      <use xlink:href="#Calibri-28" x="611.962891"/>
      <use xlink:href="#Calibri-24" x="642.285156"/>
      <use xlink:href="#Calibri-2f" x="692.96875"/>
      <use xlink:href="#Calibri-6b" x="731.591797"/>
      <use xlink:href="#Calibri-57" x="777.050781"/>
      <use xlink:href="#Calibri-68" x="866.015625"/>
      <use xlink:href="#Calibri-29" x="918.554688"/>
     </g>
    </g>
   </g>
   <g id="matplotlib.axis_2">
    <g id="ytick_1">
     <g id="line2d_5">
      <defs>
       <path id="m2c336b72c8" d="M 0 0 
L -3.5 0 
" style="stroke: #000000; stroke-width: 0.8"/>
      </defs>
      <g>
       <use xlink:href="#m2c336b72c8" x="59.57875" y="193.04875" style="stroke: #000000; stroke-width: 0.8"/>
      </g>
     </g>
     <g id="text_6">
      <!-- 0 -->
      <g transform="translate(45.4825 197.809844) scale(0.14 -0.14)">
       <use xlink:href="#Calibri-30"/>
      </g>
     </g>
    </g>
    <g id="ytick_2">
     <g id="line2d_6">
      <g>
       <use xlink:href="#m2c336b72c8" x="59.57875" y="160.16275" style="stroke: #000000; stroke-width: 0.8"/>
      </g>
     </g>
     <g id="text_7">
      <!-- 2 -->
      <g transform="translate(45.4825 164.923844) scale(0.14 -0.14)">
       <use xlink:href="#Calibri-32"/>
      </g>
     </g>
    </g>
    <g id="ytick_3">
     <g id="line2d_7">
      <g>
       <use xlink:href="#m2c336b72c8" x="59.57875" y="127.27675" style="stroke: #000000; stroke-width: 0.8"/>
      </g>
     </g>
     <g id="text_8">
      <!-- 4 -->
      <g transform="translate(45.4825 132.037844) scale(0.14 -0.14)">
       <defs>
        <path id="Calibri-34" d="M 3059 1150 
Q 3059 1047 3028 987 
Q 2997 928 2941 928 
L 2484 928 
L 2484 78 
Q 2484 53 2471 36 
Q 2459 19 2428 6 
Q 2397 -6 2347 -12 
Q 2297 -19 2219 -19 
Q 2144 -19 2094 -12 
Q 2044 -6 2014 6 
Q 1984 19 1973 36 
Q 1963 53 1963 78 
L 1963 928 
L 294 928 
Q 256 928 231 937 
Q 206 947 186 972 
Q 166 997 158 1044 
Q 150 1091 150 1166 
Q 150 1225 153 1272 
Q 156 1319 165 1358 
Q 175 1397 190 1433 
Q 206 1469 228 1509 
L 1684 3966 
Q 1700 3991 1729 4009 
Q 1759 4028 1806 4040 
Q 1853 4053 1922 4058 
Q 1991 4063 2084 4063 
Q 2188 4063 2264 4055 
Q 2341 4047 2387 4034 
Q 2434 4022 2459 4001 
Q 2484 3981 2484 3953 
L 2484 1372 
L 2941 1372 
Q 2994 1372 3026 1317 
Q 3059 1263 3059 1150 
z
M 1963 3591 
L 1956 3591 
L 641 1372 
L 1963 1372 
L 1963 3591 
z
" transform="scale(0.015625)"/>
       </defs>
       <use xlink:href="#Calibri-34"/>
      </g>
     </g>
    </g>
    <g id="ytick_4">
     <g id="line2d_8">
      <g>
       <use xlink:href="#m2c336b72c8" x="59.57875" y="94.39075" style="stroke: #000000; stroke-width: 0.8"/>
      </g>
     </g>
     <g id="text_9">
      <!-- 6 -->
      <g transform="translate(45.4825 99.151844) scale(0.14 -0.14)">
       <defs>
        <path id="Calibri-36" d="M 2991 1309 
Q 2991 1044 2909 795 
Q 2828 547 2659 358 
Q 2491 169 2231 55 
Q 1972 -59 1619 -59 
Q 1366 -59 1172 3 
Q 978 66 834 181 
Q 691 297 595 465 
Q 500 634 442 850 
Q 384 1066 359 1322 
Q 334 1578 334 1872 
Q 334 2131 362 2397 
Q 391 2663 462 2909 
Q 534 3156 657 3373 
Q 781 3591 967 3752 
Q 1153 3913 1412 4006 
Q 1672 4100 2016 4100 
Q 2131 4100 2250 4086 
Q 2369 4072 2469 4048 
Q 2569 4025 2637 3997 
Q 2706 3969 2728 3951 
Q 2750 3934 2761 3914 
Q 2772 3894 2778 3870 
Q 2784 3847 2787 3817 
Q 2791 3788 2791 3744 
Q 2791 3688 2789 3647 
Q 2788 3606 2777 3581 
Q 2766 3556 2748 3543 
Q 2731 3531 2703 3531 
Q 2669 3531 2609 3553 
Q 2550 3575 2465 3601 
Q 2381 3628 2261 3650 
Q 2141 3672 1981 3672 
Q 1691 3672 1481 3553 
Q 1272 3434 1139 3234 
Q 1006 3034 942 2770 
Q 878 2506 869 2219 
Q 950 2266 1051 2312 
Q 1153 2359 1273 2396 
Q 1394 2434 1528 2457 
Q 1663 2481 1816 2481 
Q 2144 2481 2369 2392 
Q 2594 2303 2733 2145 
Q 2872 1988 2931 1773 
Q 2991 1559 2991 1309 
z
M 2447 1259 
Q 2447 1441 2411 1589 
Q 2375 1738 2290 1841 
Q 2206 1944 2065 2000 
Q 1925 2056 1719 2056 
Q 1603 2056 1487 2036 
Q 1372 2016 1264 1980 
Q 1156 1944 1057 1895 
Q 959 1847 878 1791 
Q 878 1388 929 1116 
Q 981 844 1079 680 
Q 1178 516 1325 445 
Q 1472 375 1669 375 
Q 1869 375 2016 450 
Q 2163 525 2259 651 
Q 2356 778 2401 936 
Q 2447 1094 2447 1259 
z
" transform="scale(0.015625)"/>
       </defs>
       <use xlink:href="#Calibri-36"/>
      </g>
     </g>
    </g>
    <g id="ytick_5">
     <g id="line2d_9">
      <g>
       <use xlink:href="#m2c336b72c8" x="59.57875" y="61.50475" style="stroke: #000000; stroke-width: 0.8"/>
      </g>
     </g>
     <g id="text_10">
      <!-- 8 -->
      <g transform="translate(45.4825 66.265844) scale(0.14 -0.14)">
       <defs>
        <path id="Calibri-38" d="M 2981 1038 
Q 2981 775 2887 570 
Q 2794 366 2617 225 
Q 2441 84 2181 12 
Q 1922 -59 1588 -59 
Q 1275 -59 1028 6 
Q 781 72 609 200 
Q 438 328 347 515 
Q 256 703 256 944 
Q 256 1134 318 1293 
Q 381 1453 498 1587 
Q 616 1722 787 1839 
Q 959 1956 1175 2063 
Q 988 2159 844 2267 
Q 700 2375 600 2501 
Q 500 2628 448 2772 
Q 397 2916 397 3084 
Q 397 3297 473 3483 
Q 550 3669 704 3806 
Q 859 3944 1098 4023 
Q 1338 4103 1656 4103 
Q 1963 4103 2186 4029 
Q 2409 3956 2554 3829 
Q 2700 3703 2769 3531 
Q 2838 3359 2838 3163 
Q 2838 3003 2786 2856 
Q 2734 2709 2634 2578 
Q 2534 2447 2389 2333 
Q 2244 2219 2056 2119 
Q 2278 2009 2451 1893 
Q 2625 1778 2742 1645 
Q 2859 1513 2920 1364 
Q 2981 1216 2981 1038 
z
M 2306 3113 
Q 2306 3244 2261 3350 
Q 2216 3456 2128 3531 
Q 2041 3606 1911 3645 
Q 1781 3684 1616 3684 
Q 1278 3684 1104 3531 
Q 931 3378 931 3113 
Q 931 2991 973 2886 
Q 1016 2781 1105 2687 
Q 1194 2594 1330 2505 
Q 1466 2416 1653 2319 
Q 1969 2481 2137 2678 
Q 2306 2875 2306 3113 
z
M 2438 981 
Q 2438 1125 2384 1242 
Q 2331 1359 2223 1461 
Q 2116 1563 1955 1658 
Q 1794 1753 1581 1856 
Q 1384 1759 1236 1662 
Q 1088 1566 992 1462 
Q 897 1359 848 1245 
Q 800 1131 800 994 
Q 800 691 1008 525 
Q 1216 359 1628 359 
Q 2028 359 2233 526 
Q 2438 694 2438 981 
z
" transform="scale(0.015625)"/>
       </defs>
       <use xlink:href="#Calibri-38"/>
      </g>
     </g>
    </g>
    <g id="ytick_6">
     <g id="line2d_10">
      <g>
       <use xlink:href="#m2c336b72c8" x="59.57875" y="28.61875" style="stroke: #000000; stroke-width: 0.8"/>
      </g>
     </g>
     <g id="text_11">
      <!-- 10 -->
      <g transform="translate(38.38625 33.379844) scale(0.14 -0.14)">
       <use xlink:href="#Calibri-31"/>
       <use xlink:href="#Calibri-30" x="50.683594"/>
      </g>
     </g>
    </g>
    <g id="text_12">
     <!-- Levelized cost of hydrogen -->
     <g transform="translate(16.770313 186.465469) rotate(-90) scale(0.14 -0.14)">
      <defs>
       <path id="Calibri-4c" d="M 2634 234 
Q 2634 172 2628 130 
Q 2622 88 2608 58 
Q 2594 28 2573 14 
Q 2553 0 2525 0 
L 738 0 
Q 666 0 602 48 
Q 538 97 538 219 
L 538 3963 
Q 538 3988 550 4006 
Q 563 4025 594 4036 
Q 625 4047 678 4055 
Q 731 4063 806 4063 
Q 884 4063 936 4055 
Q 988 4047 1019 4036 
Q 1050 4025 1062 4006 
Q 1075 3988 1075 3963 
L 1075 466 
L 2525 466 
Q 2553 466 2573 452 
Q 2594 438 2608 411 
Q 2622 384 2628 340 
Q 2634 297 2634 234 
z
" transform="scale(0.015625)"/>
       <path id="Calibri-76" d="M 2784 2897 
Q 2784 2884 2782 2870 
Q 2781 2856 2778 2840 
Q 2775 2825 2770 2806 
Q 2766 2788 2759 2766 
L 1800 94 
Q 1788 59 1767 37 
Q 1747 16 1706 3 
Q 1666 -9 1603 -14 
Q 1541 -19 1447 -19 
Q 1353 -19 1290 -12 
Q 1228 -6 1189 6 
Q 1150 19 1128 41 
Q 1106 63 1094 94 
L 138 2766 
Q 125 2803 117 2831 
Q 109 2859 107 2873 
Q 106 2888 106 2897 
Q 106 2922 118 2940 
Q 131 2959 161 2970 
Q 191 2981 239 2984 
Q 288 2988 359 2988 
Q 450 2988 504 2983 
Q 559 2978 589 2965 
Q 619 2953 633 2934 
Q 647 2916 659 2888 
L 1453 569 
L 1466 531 
L 1475 569 
L 2259 2888 
Q 2266 2916 2281 2934 
Q 2297 2953 2326 2965 
Q 2356 2978 2407 2983 
Q 2459 2988 2544 2988 
Q 2616 2988 2662 2984 
Q 2709 2981 2736 2968 
Q 2763 2956 2773 2939 
Q 2784 2922 2784 2897 
z
" transform="scale(0.015625)"/>
       <path id="Calibri-7a" d="M 2272 219 
Q 2272 159 2262 117 
Q 2253 75 2240 48 
Q 2228 22 2206 11 
Q 2184 0 2159 0 
L 428 0 
Q 363 0 320 44 
Q 278 88 278 191 
L 278 297 
Q 278 341 284 375 
Q 291 409 303 443 
Q 316 478 337 517 
Q 359 556 391 606 
L 1631 2538 
L 428 2538 
Q 378 2538 348 2589 
Q 319 2641 319 2756 
Q 319 2813 325 2855 
Q 331 2897 345 2923 
Q 359 2950 379 2961 
Q 400 2972 428 2972 
L 2041 2972 
Q 2075 2972 2101 2962 
Q 2128 2953 2147 2931 
Q 2166 2909 2177 2875 
Q 2188 2841 2188 2788 
L 2188 2688 
Q 2188 2644 2181 2606 
Q 2175 2569 2162 2533 
Q 2150 2497 2128 2456 
Q 2106 2416 2075 2366 
L 841 434 
L 2159 434 
Q 2184 434 2204 423 
Q 2225 413 2239 388 
Q 2253 363 2262 320 
Q 2272 278 2272 219 
z
" transform="scale(0.015625)"/>
       <path id="Calibri-64" d="M 2888 78 
Q 2888 53 2877 34 
Q 2866 16 2839 5 
Q 2813 -6 2769 -12 
Q 2725 -19 2663 -19 
Q 2597 -19 2553 -12 
Q 2509 -6 2481 5 
Q 2453 16 2440 34 
Q 2428 53 2428 78 
L 2428 450 
Q 2206 209 1967 75 
Q 1728 -59 1444 -59 
Q 1134 -59 915 61 
Q 697 181 561 386 
Q 425 591 362 867 
Q 300 1144 300 1450 
Q 300 1813 378 2105 
Q 456 2397 609 2603 
Q 763 2809 989 2920 
Q 1216 3031 1513 3031 
Q 1759 3031 1964 2923 
Q 2169 2816 2369 2606 
L 2369 4241 
Q 2369 4263 2380 4283 
Q 2391 4303 2422 4314 
Q 2453 4325 2501 4333 
Q 2550 4341 2625 4341 
Q 2703 4341 2753 4333 
Q 2803 4325 2831 4314 
Q 2859 4303 2873 4283 
Q 2888 4263 2888 4241 
L 2888 78 
z
M 2369 2056 
Q 2159 2316 1964 2452 
Q 1769 2588 1556 2588 
Q 1359 2588 1221 2494 
Q 1084 2400 998 2247 
Q 913 2094 873 1900 
Q 834 1706 834 1506 
Q 834 1294 867 1091 
Q 900 888 981 730 
Q 1063 572 1197 476 
Q 1331 381 1534 381 
Q 1638 381 1733 409 
Q 1828 438 1928 503 
Q 2028 569 2137 673 
Q 2247 778 2369 931 
L 2369 2056 
z
" transform="scale(0.015625)"/>
       <path id="Calibri-66" d="M 2019 4047 
Q 2019 3988 2012 3952 
Q 2006 3916 1998 3894 
Q 1991 3872 1978 3864 
Q 1966 3856 1947 3856 
Q 1925 3856 1892 3870 
Q 1859 3884 1812 3901 
Q 1766 3919 1702 3933 
Q 1638 3947 1553 3947 
Q 1438 3947 1356 3909 
Q 1275 3872 1225 3792 
Q 1175 3713 1153 3586 
Q 1131 3459 1131 3278 
L 1131 2972 
L 1759 2972 
Q 1784 2972 1801 2961 
Q 1819 2950 1833 2923 
Q 1847 2897 1855 2856 
Q 1863 2816 1863 2756 
Q 1863 2644 1834 2594 
Q 1806 2544 1759 2544 
L 1131 2544 
L 1131 78 
Q 1131 53 1118 36 
Q 1106 19 1076 6 
Q 1047 -6 997 -12 
Q 947 -19 872 -19 
Q 797 -19 747 -12 
Q 697 -6 667 6 
Q 638 19 625 36 
Q 613 53 613 78 
L 613 2544 
L 216 2544 
Q 166 2544 141 2594 
Q 116 2644 116 2756 
Q 116 2816 122 2856 
Q 128 2897 140 2923 
Q 153 2950 172 2961 
Q 191 2972 216 2972 
L 613 2972 
L 613 3263 
Q 613 3556 667 3767 
Q 722 3978 834 4112 
Q 947 4247 1117 4311 
Q 1288 4375 1519 4375 
Q 1628 4375 1731 4354 
Q 1834 4334 1890 4311 
Q 1947 4288 1965 4269 
Q 1984 4250 1996 4220 
Q 2009 4191 2014 4148 
Q 2019 4106 2019 4047 
z
" transform="scale(0.015625)"/>
       <path id="Calibri-67" d="M 2828 2763 
Q 2828 2653 2798 2604 
Q 2769 2556 2722 2556 
L 2319 2556 
Q 2428 2444 2472 2308 
Q 2516 2172 2516 2025 
Q 2516 1781 2437 1593 
Q 2359 1406 2214 1276 
Q 2069 1147 1869 1078 
Q 1669 1009 1425 1009 
Q 1253 1009 1098 1054 
Q 944 1100 859 1169 
Q 803 1113 767 1041 
Q 731 969 731 875 
Q 731 766 832 694 
Q 934 622 1103 616 
L 1838 584 
Q 2047 578 2222 526 
Q 2397 475 2525 379 
Q 2653 284 2725 145 
Q 2797 6 2797 -178 
Q 2797 -372 2715 -547 
Q 2634 -722 2467 -855 
Q 2300 -988 2040 -1064 
Q 1781 -1141 1428 -1141 
Q 1088 -1141 848 -1083 
Q 609 -1025 456 -925 
Q 303 -825 234 -686 
Q 166 -547 166 -384 
Q 166 -281 191 -184 
Q 216 -88 267 0 
Q 319 88 395 167 
Q 472 247 572 325 
Q 419 403 345 522 
Q 272 641 272 778 
Q 272 969 350 1119 
Q 428 1269 544 1388 
Q 447 1503 390 1648 
Q 334 1794 334 2000 
Q 334 2241 415 2431 
Q 497 2622 640 2753 
Q 784 2884 986 2954 
Q 1188 3025 1425 3025 
Q 1553 3025 1664 3011 
Q 1775 2997 1872 2972 
L 2722 2972 
Q 2775 2972 2801 2920 
Q 2828 2869 2828 2763 
z
M 2022 2022 
Q 2022 2309 1864 2470 
Q 1706 2631 1416 2631 
Q 1266 2631 1155 2581 
Q 1044 2531 970 2443 
Q 897 2356 861 2242 
Q 825 2128 825 2003 
Q 825 1725 983 1565 
Q 1141 1406 1425 1406 
Q 1578 1406 1690 1454 
Q 1803 1503 1876 1589 
Q 1950 1675 1986 1787 
Q 2022 1900 2022 2022 
z
M 2281 -206 
Q 2281 -25 2132 73 
Q 1984 172 1731 178 
L 1003 203 
Q 903 125 839 54 
Q 775 -16 737 -80 
Q 700 -144 686 -206 
Q 672 -269 672 -334 
Q 672 -538 878 -642 
Q 1084 -747 1453 -747 
Q 1688 -747 1845 -701 
Q 2003 -656 2100 -581 
Q 2197 -506 2239 -409 
Q 2281 -313 2281 -206 
z
" transform="scale(0.015625)"/>
       <path id="Calibri-6e" d="M 2900 78 
Q 2900 53 2887 36 
Q 2875 19 2847 6 
Q 2819 -6 2769 -12 
Q 2719 -19 2644 -19 
Q 2566 -19 2516 -12 
Q 2466 -6 2437 6 
Q 2409 19 2396 36 
Q 2384 53 2384 78 
L 2384 1725 
Q 2384 1966 2346 2112 
Q 2309 2259 2237 2365 
Q 2166 2472 2052 2528 
Q 1938 2584 1788 2584 
Q 1594 2584 1400 2446 
Q 1206 2309 994 2044 
L 994 78 
Q 994 53 981 36 
Q 969 19 941 6 
Q 913 -6 863 -12 
Q 813 -19 734 -19 
Q 659 -19 609 -12 
Q 559 -6 529 6 
Q 500 19 489 36 
Q 478 53 478 78 
L 478 2891 
Q 478 2916 487 2933 
Q 497 2950 525 2964 
Q 553 2978 597 2983 
Q 641 2988 713 2988 
Q 781 2988 826 2983 
Q 872 2978 897 2964 
Q 922 2950 933 2933 
Q 944 2916 944 2891 
L 944 2519 
Q 1181 2784 1417 2907 
Q 1653 3031 1894 3031 
Q 2175 3031 2367 2936 
Q 2559 2841 2678 2681 
Q 2797 2522 2848 2308 
Q 2900 2094 2900 1794 
L 2900 78 
z
" transform="scale(0.015625)"/>
      </defs>
      <use xlink:href="#Calibri-4c"/>
      <use xlink:href="#Calibri-65" x="42.041016"/>
      <use xlink:href="#Calibri-76" x="91.796875"/>
      <use xlink:href="#Calibri-65" x="136.962891"/>
      <use xlink:href="#Calibri-6c" x="186.71875"/>
      <use xlink:href="#Calibri-69" x="209.667969"/>
      <use xlink:href="#Calibri-7a" x="232.617188"/>
      <use xlink:href="#Calibri-65" x="272.119141"/>
      <use xlink:href="#Calibri-64" x="321.875"/>
      <use xlink:href="#Calibri-20" x="374.414062"/>
      <use xlink:href="#Calibri-63" x="397.021484"/>
      <use xlink:href="#Calibri-6f" x="439.306641"/>
      <use xlink:href="#Calibri-73" x="492.041016"/>
      <use xlink:href="#Calibri-74" x="531.152344"/>
      <use xlink:href="#Calibri-20" x="564.648438"/>
      <use xlink:href="#Calibri-6f" x="587.255859"/>
      <use xlink:href="#Calibri-66" x="639.990234"/>
      <use xlink:href="#Calibri-20" x="670.507812"/>
      <use xlink:href="#Calibri-68" x="693.115234"/>
      <use xlink:href="#Calibri-79" x="745.654297"/>
      <use xlink:href="#Calibri-64" x="790.917969"/>
      <use xlink:href="#Calibri-72" x="843.457031"/>
      <use xlink:href="#Calibri-6f" x="878.320312"/>
      <use xlink:href="#Calibri-67" x="931.054688"/>
      <use xlink:href="#Calibri-65" x="978.125"/>
      <use xlink:href="#Calibri-6e" x="1027.880859"/>
     </g>
     <!-- (2022\$/kg ${H_2}$) -->
     <g transform="translate(31.86625 152.27375) rotate(-90) scale(0.14 -0.14)">
      <defs>
       <path id="DejaVuSans-48" d="M 628 4666 
L 1259 4666 
L 1259 2753 
L 3553 2753 
L 3553 4666 
L 4184 4666 
L 4184 0 
L 3553 0 
L 3553 2222 
L 1259 2222 
L 1259 0 
L 628 0 
L 628 4666 
z
" transform="scale(0.015625)"/>
       <path id="DejaVuSans-32" d="M 1228 531 
L 3431 531 
L 3431 0 
L 469 0 
L 469 531 
Q 828 903 1448 1529 
Q 2069 2156 2228 2338 
Q 2531 2678 2651 2914 
Q 2772 3150 2772 3378 
Q 2772 3750 2511 3984 
Q 2250 4219 1831 4219 
Q 1534 4219 1204 4116 
Q 875 4013 500 3803 
L 500 4441 
Q 881 4594 1212 4672 
Q 1544 4750 1819 4750 
Q 2544 4750 2975 4387 
Q 3406 4025 3406 3419 
Q 3406 3131 3298 2873 
Q 3191 2616 2906 2266 
Q 2828 2175 2409 1742 
Q 1991 1309 1228 531 
z
" transform="scale(0.015625)"/>
      </defs>
      <use xlink:href="#Calibri-28" transform="translate(0 0.640625)"/>
      <use xlink:href="#Calibri-32" transform="translate(30.322266 0.640625)"/>
      <use xlink:href="#Calibri-30" transform="translate(81.005859 0.640625)"/>
      <use xlink:href="#Calibri-32" transform="translate(131.689453 0.640625)"/>
      <use xlink:href="#Calibri-32" transform="translate(182.373047 0.640625)"/>
      <use xlink:href="#Calibri-24" transform="translate(233.056641 0.640625)"/>
      <use xlink:href="#Calibri-2f" transform="translate(283.740234 0.640625)"/>
      <use xlink:href="#Calibri-6b" transform="translate(322.363281 0.640625)"/>
      <use xlink:href="#Calibri-67" transform="translate(367.822266 0.640625)"/>
      <use xlink:href="#Calibri-20" transform="translate(414.892578 0.640625)"/>
      <use xlink:href="#DejaVuSans-48" transform="translate(437.5 0.640625)"/>
      <use xlink:href="#DejaVuSans-32" transform="translate(513.652344 -15.765625) scale(0.7)"/>
      <use xlink:href="#Calibri-29" transform="translate(560.922852 0.640625)"/>
     </g>
    </g>
   </g>
   <g id="line2d_11">
    <path d="M 71.537972 158.057198 
L 83.497194 157.288074 
L 95.456417 156.51895 
L 107.415639 155.749826 
L 119.374861 154.980702 
L 131.334083 154.211577 
L 143.293306 153.442453 
L 155.252528 152.673329 
L 167.21175 151.904205 
L 179.170972 151.135081 
L 191.130194 150.365956 
L 203.089417 149.596832 
L 215.048639 148.827708 
L 227.007861 148.058584 
L 238.967083 147.28946 
" clip-path="url(#p6b1e0270b4)" style="fill: none; stroke: #d95f02; stroke-width: 2; stroke-linecap: square"/>
   </g>
   <g id="line2d_12">
    <path d="M 71.537972 140.682822 
L 83.497194 137.187069 
L 95.456417 133.691317 
L 107.415639 130.195564 
L 119.374861 126.699811 
L 131.334083 123.204059 
L 143.293306 119.708306 
L 155.252528 116.212554 
L 167.21175 112.716801 
L 179.170972 109.221048 
L 191.130194 105.725296 
L 203.089417 102.229543 
L 215.048639 98.733791 
L 227.007861 95.238038 
L 238.967083 91.742285 
" clip-path="url(#p6b1e0270b4)" style="fill: none; stroke: #1b9e77; stroke-width: 2; stroke-linecap: square"/>
   </g>
   <g id="line2d_13">
    <path d="M 71.537972 192.951332 
L 83.497194 192.951332 
L 95.456417 192.951332 
L 107.415639 192.951332 
L 119.374861 192.951332 
L 131.334083 192.951332 
L 143.293306 192.951332 
L 155.252528 192.951332 
L 167.21175 192.951332 
L 179.170972 192.951332 
L 191.130194 192.951332 
L 203.089417 192.951332 
L 215.048639 192.951332 
L 227.007861 192.951332 
L 238.967083 192.951332 
" clip-path="url(#p6b1e0270b4)" style="fill: none; stroke: #7570b3; stroke-width: 2; stroke-linecap: square"/>
   </g>
   <g id="line2d_14">
    <path d="M 161.770304 193.04875 
L 161.770304 28.61875 
" clip-path="url(#p6b1e0270b4)" style="fill: none; stroke-dasharray: 2.775,1.2; stroke-dashoffset: 0; stroke: #000000; stroke-width: 0.75"/>
   </g>
   <g id="patch_3">
    <path d="M 59.57875 193.04875 
L 59.57875 28.61875 
" style="fill: none; stroke: #000000; stroke-width: 0.8; stroke-linejoin: miter; stroke-linecap: square"/>
   </g>
   <g id="patch_4">
    <path d="M 238.967083 193.04875 
L 238.967083 28.61875 
" style="fill: none; stroke: #000000; stroke-width: 0.8; stroke-linejoin: miter; stroke-linecap: square"/>
   </g>
   <g id="patch_5">
    <path d="M 59.57875 193.04875 
L 238.967083 193.04875 
" style="fill: none; stroke: #000000; stroke-width: 0.8; stroke-linejoin: miter; stroke-linecap: square"/>
   </g>
   <g id="patch_6">
    <path d="M 59.57875 28.61875 
L 238.967083 28.61875 
" style="fill: none; stroke: #000000; stroke-width: 0.8; stroke-linejoin: miter; stroke-linecap: square"/>
   </g>
   <g id="patch_7">
    <path d="M 137.997465 61.50475 
Q 148.017403 61.50475 156.919307 61.50475 
" style="fill: none; stroke: #000000; stroke-linecap: round"/>
    <path d="M 151.319307 58.70475 
L 156.919307 61.50475 
L 151.319307 64.30475 
z
" style="stroke: #000000; stroke-linecap: round"/>
   </g>
   <g id="text_13">
    <!-- Baseline -->
    <g transform="translate(86.487 65.021156) scale(0.14 -0.14)">
     <defs>
      <path id="Calibri-42" d="M 3203 1159 
Q 3203 969 3154 808 
Q 3106 647 3018 519 
Q 2931 391 2807 294 
Q 2684 197 2529 131 
Q 2375 66 2198 33 
Q 2022 0 1794 0 
L 738 0 
Q 666 0 602 48 
Q 538 97 538 219 
L 538 3825 
Q 538 3947 602 3995 
Q 666 4044 738 4044 
L 1656 4044 
Q 2019 4044 2250 3975 
Q 2481 3906 2636 3775 
Q 2791 3644 2869 3453 
Q 2947 3263 2947 3022 
Q 2947 2878 2912 2747 
Q 2878 2616 2811 2505 
Q 2744 2394 2642 2306 
Q 2541 2219 2409 2163 
Q 2575 2131 2719 2048 
Q 2863 1966 2970 1837 
Q 3078 1709 3140 1537 
Q 3203 1366 3203 1159 
z
M 2394 2969 
Q 2394 3116 2353 3234 
Q 2313 3353 2225 3436 
Q 2138 3519 1997 3562 
Q 1856 3606 1625 3606 
L 1069 3606 
L 1069 2297 
L 1681 2297 
Q 1891 2297 2019 2351 
Q 2147 2406 2231 2498 
Q 2316 2591 2355 2714 
Q 2394 2838 2394 2969 
z
M 2638 1128 
Q 2638 1309 2580 1446 
Q 2522 1584 2411 1678 
Q 2300 1772 2133 1820 
Q 1966 1869 1713 1869 
L 1069 1869 
L 1069 444 
L 1850 444 
Q 2034 444 2171 487 
Q 2309 531 2414 617 
Q 2519 703 2578 831 
Q 2638 959 2638 1128 
z
" transform="scale(0.015625)"/>
      <path id="Calibri-61" d="M 2597 75 
Q 2597 38 2572 19 
Q 2547 0 2503 -9 
Q 2459 -19 2375 -19 
Q 2294 -19 2245 -9 
Q 2197 0 2175 19 
Q 2153 38 2153 75 
L 2153 356 
Q 1969 159 1742 50 
Q 1516 -59 1263 -59 
Q 1041 -59 861 -1 
Q 681 56 554 165 
Q 428 275 358 434 
Q 288 594 288 797 
Q 288 1034 384 1209 
Q 481 1384 662 1500 
Q 844 1616 1106 1673 
Q 1369 1731 1697 1731 
L 2084 1731 
L 2084 1950 
Q 2084 2113 2050 2238 
Q 2016 2363 1939 2445 
Q 1863 2528 1741 2570 
Q 1619 2613 1441 2613 
Q 1250 2613 1098 2567 
Q 947 2522 833 2467 
Q 719 2413 642 2367 
Q 566 2322 528 2322 
Q 503 2322 484 2334 
Q 466 2347 452 2372 
Q 438 2397 431 2436 
Q 425 2475 425 2522 
Q 425 2600 436 2645 
Q 447 2691 489 2731 
Q 531 2772 634 2826 
Q 738 2881 872 2926 
Q 1006 2972 1165 3001 
Q 1325 3031 1488 3031 
Q 1791 3031 2003 2962 
Q 2216 2894 2347 2761 
Q 2478 2628 2537 2431 
Q 2597 2234 2597 1972 
L 2597 75 
z
M 2084 1359 
L 1644 1359 
Q 1431 1359 1275 1323 
Q 1119 1288 1016 1217 
Q 913 1147 864 1048 
Q 816 950 816 822 
Q 816 603 955 473 
Q 1094 344 1344 344 
Q 1547 344 1720 447 
Q 1894 550 2084 763 
L 2084 1359 
z
" transform="scale(0.015625)"/>
     </defs>
     <use xlink:href="#Calibri-42"/>
     <use xlink:href="#Calibri-61" x="54.394531"/>
     <use xlink:href="#Calibri-73" x="102.294922"/>
     <use xlink:href="#Calibri-65" x="141.40625"/>
     <use xlink:href="#Calibri-6c" x="191.162109"/>
     <use xlink:href="#Calibri-69" x="214.111328"/>
     <use xlink:href="#Calibri-6e" x="237.060547"/>
     <use xlink:href="#Calibri-65" x="289.599609"/>
    </g>
   </g>
   <g id="text_14">
    <!-- Preconditioning cost -->
    <g transform="translate(77.733792 18.61875) scale(0.168 -0.168)">
     <defs>
      <path id="Calibri-Bold-50" d="M 3209 2816 
Q 3209 2475 3103 2212 
Q 2997 1950 2794 1770 
Q 2591 1591 2295 1497 
Q 2000 1403 1600 1403 
L 1263 1403 
L 1263 113 
Q 1263 81 1242 56 
Q 1222 31 1175 15 
Q 1128 0 1050 -9 
Q 972 -19 850 -19 
Q 731 -19 651 -9 
Q 572 0 525 15 
Q 478 31 459 56 
Q 441 81 441 113 
L 441 3750 
Q 441 3897 517 3970 
Q 594 4044 719 4044 
L 1672 4044 
Q 1816 4044 1945 4033 
Q 2075 4022 2256 3986 
Q 2438 3950 2623 3853 
Q 2809 3756 2940 3607 
Q 3072 3459 3140 3261 
Q 3209 3063 3209 2816 
z
M 2350 2756 
Q 2350 2969 2275 3106 
Q 2200 3244 2090 3309 
Q 1981 3375 1861 3392 
Q 1741 3409 1613 3409 
L 1263 3409 
L 1263 2038 
L 1631 2038 
Q 1828 2038 1961 2091 
Q 2094 2144 2178 2239 
Q 2263 2334 2306 2467 
Q 2350 2600 2350 2756 
z
" transform="scale(0.015625)"/>
      <path id="Calibri-Bold-72" d="M 2184 2634 
Q 2184 2522 2178 2450 
Q 2172 2378 2159 2337 
Q 2147 2297 2126 2281 
Q 2106 2266 2075 2266 
Q 2050 2266 2019 2277 
Q 1988 2288 1948 2300 
Q 1909 2313 1862 2323 
Q 1816 2334 1759 2334 
Q 1694 2334 1628 2307 
Q 1563 2281 1492 2225 
Q 1422 2169 1345 2075 
Q 1269 1981 1181 1844 
L 1181 106 
Q 1181 75 1162 51 
Q 1144 28 1098 12 
Q 1053 -3 978 -11 
Q 903 -19 788 -19 
Q 672 -19 597 -11 
Q 522 -3 476 12 
Q 431 28 412 51 
Q 394 75 394 106 
L 394 2894 
Q 394 2925 409 2948 
Q 425 2972 465 2987 
Q 506 3003 570 3011 
Q 634 3019 731 3019 
Q 831 3019 897 3011 
Q 963 3003 998 2987 
Q 1034 2972 1050 2948 
Q 1066 2925 1066 2894 
L 1066 2547 
Q 1175 2703 1272 2804 
Q 1369 2906 1456 2965 
Q 1544 3025 1631 3048 
Q 1719 3072 1806 3072 
Q 1847 3072 1894 3067 
Q 1941 3063 1991 3052 
Q 2041 3041 2078 3027 
Q 2116 3013 2133 2997 
Q 2150 2981 2158 2962 
Q 2166 2944 2172 2911 
Q 2178 2878 2181 2812 
Q 2184 2747 2184 2634 
z
" transform="scale(0.015625)"/>
      <path id="Calibri-Bold-65" d="M 2969 1581 
Q 2969 1438 2905 1369 
Q 2841 1300 2728 1300 
L 1031 1300 
Q 1031 1122 1073 976 
Q 1116 831 1208 729 
Q 1300 628 1445 575 
Q 1591 522 1794 522 
Q 2000 522 2156 551 
Q 2313 581 2427 617 
Q 2541 653 2616 683 
Q 2691 713 2738 713 
Q 2766 713 2784 702 
Q 2803 691 2815 662 
Q 2828 634 2833 582 
Q 2838 531 2838 453 
Q 2838 384 2834 336 
Q 2831 288 2825 253 
Q 2819 219 2806 195 
Q 2794 172 2773 150 
Q 2753 128 2662 90 
Q 2572 53 2431 17 
Q 2291 -19 2109 -45 
Q 1928 -72 1722 -72 
Q 1350 -72 1070 22 
Q 791 116 603 306 
Q 416 497 323 787 
Q 231 1078 231 1469 
Q 231 1841 328 2139 
Q 425 2438 609 2645 
Q 794 2853 1058 2962 
Q 1322 3072 1653 3072 
Q 2003 3072 2251 2969 
Q 2500 2866 2659 2683 
Q 2819 2500 2894 2250 
Q 2969 2000 2969 1706 
L 2969 1581 
z
M 2206 1806 
Q 2216 2138 2073 2327 
Q 1931 2516 1634 2516 
Q 1484 2516 1373 2459 
Q 1263 2403 1189 2308 
Q 1116 2213 1077 2083 
Q 1038 1953 1031 1806 
L 2206 1806 
z
" transform="scale(0.015625)"/>
      <path id="Calibri-Bold-63" d="M 2503 550 
Q 2503 469 2498 414 
Q 2494 359 2486 321 
Q 2478 284 2467 261 
Q 2456 238 2418 202 
Q 2381 166 2290 114 
Q 2200 63 2084 22 
Q 1969 -19 1833 -44 
Q 1697 -69 1553 -69 
Q 1231 -69 982 31 
Q 734 131 565 326 
Q 397 522 311 803 
Q 225 1084 225 1447 
Q 225 1866 329 2170 
Q 434 2475 621 2675 
Q 809 2875 1065 2972 
Q 1322 3069 1628 3069 
Q 1753 3069 1873 3047 
Q 1994 3025 2098 2987 
Q 2203 2950 2286 2903 
Q 2369 2856 2403 2822 
Q 2438 2788 2452 2764 
Q 2466 2741 2473 2703 
Q 2481 2666 2486 2611 
Q 2491 2556 2491 2478 
Q 2491 2297 2459 2223 
Q 2428 2150 2378 2150 
Q 2325 2150 2265 2194 
Q 2206 2238 2125 2291 
Q 2044 2344 1931 2387 
Q 1819 2431 1663 2431 
Q 1356 2431 1193 2195 
Q 1031 1959 1031 1503 
Q 1031 1278 1072 1106 
Q 1113 934 1192 818 
Q 1272 703 1392 645 
Q 1513 588 1672 588 
Q 1834 588 1951 636 
Q 2069 684 2156 743 
Q 2244 803 2303 851 
Q 2363 900 2403 900 
Q 2431 900 2450 884 
Q 2469 869 2480 826 
Q 2491 784 2497 718 
Q 2503 653 2503 550 
z
" transform="scale(0.015625)"/>
      <path id="Calibri-Bold-6f" d="M 3213 1528 
Q 3213 1172 3119 878 
Q 3025 584 2834 371 
Q 2644 159 2356 43 
Q 2069 -72 1684 -72 
Q 1313 -72 1038 31 
Q 763 134 581 331 
Q 400 528 312 815 
Q 225 1103 225 1472 
Q 225 1828 320 2123 
Q 416 2419 606 2630 
Q 797 2841 1083 2956 
Q 1369 3072 1753 3072 
Q 2128 3072 2403 2970 
Q 2678 2869 2858 2672 
Q 3038 2475 3125 2187 
Q 3213 1900 3213 1528 
z
M 2403 1497 
Q 2403 1703 2370 1876 
Q 2338 2050 2259 2178 
Q 2181 2306 2051 2378 
Q 1922 2450 1725 2450 
Q 1550 2450 1419 2386 
Q 1288 2322 1203 2198 
Q 1119 2075 1076 1901 
Q 1034 1728 1034 1506 
Q 1034 1300 1068 1126 
Q 1103 953 1179 825 
Q 1256 697 1387 626 
Q 1519 556 1713 556 
Q 1891 556 2022 620 
Q 2153 684 2237 806 
Q 2322 928 2362 1101 
Q 2403 1275 2403 1497 
z
" transform="scale(0.015625)"/>
      <path id="Calibri-Bold-6e" d="M 3056 106 
Q 3056 75 3037 51 
Q 3019 28 2975 12 
Q 2931 -3 2854 -11 
Q 2778 -19 2666 -19 
Q 2550 -19 2473 -11 
Q 2397 -3 2353 12 
Q 2309 28 2290 51 
Q 2272 75 2272 106 
L 2272 1697 
Q 2272 1900 2242 2015 
Q 2213 2131 2156 2214 
Q 2100 2297 2011 2342 
Q 1922 2388 1803 2388 
Q 1653 2388 1500 2278 
Q 1347 2169 1181 1959 
L 1181 106 
Q 1181 75 1162 51 
Q 1144 28 1098 12 
Q 1053 -3 978 -11 
Q 903 -19 788 -19 
Q 672 -19 597 -11 
Q 522 -3 476 12 
Q 431 28 412 51 
Q 394 75 394 106 
L 394 2894 
Q 394 2925 409 2948 
Q 425 2972 465 2987 
Q 506 3003 570 3011 
Q 634 3019 731 3019 
Q 831 3019 897 3011 
Q 963 3003 998 2987 
Q 1034 2972 1050 2948 
Q 1066 2925 1066 2894 
L 1066 2572 
Q 1297 2822 1536 2947 
Q 1775 3072 2034 3072 
Q 2319 3072 2514 2978 
Q 2709 2884 2829 2723 
Q 2950 2563 3003 2347 
Q 3056 2131 3056 1828 
L 3056 106 
z
" transform="scale(0.015625)"/>
      <path id="Calibri-Bold-64" d="M 3038 106 
Q 3038 72 3022 48 
Q 3006 25 2968 9 
Q 2931 -6 2867 -12 
Q 2803 -19 2709 -19 
Q 2609 -19 2546 -12 
Q 2484 -6 2445 9 
Q 2406 25 2389 48 
Q 2372 72 2372 106 
L 2372 416 
Q 2156 184 1920 56 
Q 1684 -72 1397 -72 
Q 1078 -72 858 51 
Q 638 175 498 384 
Q 359 594 296 873 
Q 234 1153 234 1463 
Q 234 1834 314 2131 
Q 394 2428 547 2637 
Q 700 2847 928 2959 
Q 1156 3072 1453 3072 
Q 1688 3072 1878 2976 
Q 2069 2881 2256 2697 
L 2256 4206 
Q 2256 4238 2273 4263 
Q 2291 4288 2336 4305 
Q 2381 4322 2456 4331 
Q 2531 4341 2647 4341 
Q 2763 4341 2838 4331 
Q 2913 4322 2956 4305 
Q 3000 4288 3019 4263 
Q 3038 4238 3038 4206 
L 3038 106 
z
M 2256 1969 
Q 2088 2181 1933 2293 
Q 1778 2406 1609 2406 
Q 1456 2406 1345 2329 
Q 1234 2253 1167 2125 
Q 1100 1997 1067 1839 
Q 1034 1681 1034 1516 
Q 1034 1341 1062 1175 
Q 1091 1009 1155 879 
Q 1219 750 1325 672 
Q 1431 594 1594 594 
Q 1675 594 1751 617 
Q 1828 641 1908 694 
Q 1988 747 2072 833 
Q 2156 919 2256 1044 
L 2256 1969 
z
" transform="scale(0.015625)"/>
      <path id="Calibri-Bold-69" d="M 1181 106 
Q 1181 75 1162 51 
Q 1144 28 1098 12 
Q 1053 -3 978 -11 
Q 903 -19 788 -19 
Q 672 -19 597 -11 
Q 522 -3 476 12 
Q 431 28 412 51 
Q 394 75 394 106 
L 394 2888 
Q 394 2919 412 2942 
Q 431 2966 476 2983 
Q 522 3000 597 3009 
Q 672 3019 788 3019 
Q 903 3019 978 3009 
Q 1053 3000 1098 2983 
Q 1144 2966 1162 2942 
Q 1181 2919 1181 2888 
L 1181 106 
z
M 1241 3838 
Q 1241 3600 1144 3509 
Q 1047 3419 784 3419 
Q 519 3419 426 3506 
Q 334 3594 334 3822 
Q 334 4059 429 4151 
Q 525 4244 791 4244 
Q 1053 4244 1147 4155 
Q 1241 4066 1241 3838 
z
" transform="scale(0.015625)"/>
      <path id="Calibri-Bold-74" d="M 2044 381 
Q 2044 244 2026 170 
Q 2009 97 1981 67 
Q 1953 38 1898 14 
Q 1844 -9 1770 -26 
Q 1697 -44 1611 -53 
Q 1525 -63 1438 -63 
Q 1203 -63 1031 -3 
Q 859 56 746 179 
Q 634 303 581 490 
Q 528 678 528 934 
L 528 2363 
L 194 2363 
Q 134 2363 103 2436 
Q 72 2509 72 2681 
Q 72 2772 80 2834 
Q 88 2897 103 2933 
Q 119 2969 142 2984 
Q 166 3000 197 3000 
L 528 3000 
L 528 3622 
Q 528 3653 545 3678 
Q 563 3703 608 3720 
Q 653 3738 729 3745 
Q 806 3753 919 3753 
Q 1034 3753 1111 3745 
Q 1188 3738 1231 3720 
Q 1275 3703 1294 3678 
Q 1313 3653 1313 3622 
L 1313 3000 
L 1919 3000 
Q 1950 3000 1973 2984 
Q 1997 2969 2012 2933 
Q 2028 2897 2036 2834 
Q 2044 2772 2044 2681 
Q 2044 2509 2012 2436 
Q 1981 2363 1922 2363 
L 1313 2363 
L 1313 1053 
Q 1313 825 1384 711 
Q 1456 597 1641 597 
Q 1703 597 1753 608 
Q 1803 619 1842 633 
Q 1881 647 1907 658 
Q 1934 669 1956 669 
Q 1975 669 1992 658 
Q 2009 647 2018 614 
Q 2028 581 2036 525 
Q 2044 469 2044 381 
z
" transform="scale(0.015625)"/>
      <path id="Calibri-Bold-67" d="M 2906 2700 
Q 2906 2550 2872 2478 
Q 2838 2406 2788 2406 
L 2459 2406 
Q 2528 2331 2558 2236 
Q 2588 2141 2588 2038 
Q 2588 1794 2506 1605 
Q 2425 1416 2273 1286 
Q 2122 1156 1908 1089 
Q 1694 1022 1431 1022 
Q 1297 1022 1175 1055 
Q 1053 1088 988 1131 
Q 950 1091 920 1034 
Q 891 978 891 909 
Q 891 819 970 761 
Q 1050 703 1194 697 
L 1872 672 
Q 2109 663 2295 605 
Q 2481 547 2607 442 
Q 2734 338 2801 191 
Q 2869 44 2869 -144 
Q 2869 -350 2778 -533 
Q 2688 -716 2506 -850 
Q 2325 -984 2051 -1062 
Q 1778 -1141 1413 -1141 
Q 1056 -1141 804 -1084 
Q 553 -1028 392 -928 
Q 231 -828 157 -689 
Q 84 -550 84 -384 
Q 84 -281 111 -187 
Q 138 -94 189 -8 
Q 241 78 316 156 
Q 391 234 488 306 
Q 353 378 279 501 
Q 206 625 206 772 
Q 206 956 290 1107 
Q 375 1259 509 1381 
Q 400 1491 334 1644 
Q 269 1797 269 2025 
Q 269 2269 355 2461 
Q 441 2653 594 2786 
Q 747 2919 959 2989 
Q 1172 3059 1428 3059 
Q 1559 3059 1679 3043 
Q 1800 3028 1903 3000 
L 2788 3000 
Q 2841 3000 2873 2931 
Q 2906 2863 2906 2700 
z
M 1897 2041 
Q 1897 2266 1772 2391 
Q 1647 2516 1419 2516 
Q 1303 2516 1215 2477 
Q 1128 2438 1070 2370 
Q 1013 2303 984 2214 
Q 956 2125 956 2028 
Q 956 1816 1081 1692 
Q 1206 1569 1428 1569 
Q 1547 1569 1634 1606 
Q 1722 1644 1780 1709 
Q 1838 1775 1867 1861 
Q 1897 1947 1897 2041 
z
M 2081 -184 
Q 2081 -44 1968 31 
Q 1856 106 1659 113 
L 1100 128 
Q 1019 69 970 14 
Q 922 -41 892 -91 
Q 863 -141 853 -187 
Q 844 -234 844 -284 
Q 844 -441 1001 -522 
Q 1159 -603 1447 -603 
Q 1625 -603 1747 -567 
Q 1869 -531 1944 -472 
Q 2019 -413 2050 -339 
Q 2081 -266 2081 -184 
z
" transform="scale(0.015625)"/>
      <path id="Calibri-Bold-20" transform="scale(0.015625)"/>
      <path id="Calibri-Bold-73" d="M 2356 894 
Q 2356 656 2267 475 
Q 2178 294 2015 172 
Q 1853 50 1631 -11 
Q 1409 -72 1150 -72 
Q 994 -72 851 -48 
Q 709 -25 596 11 
Q 484 47 409 84 
Q 334 122 300 155 
Q 266 188 247 258 
Q 228 328 228 466 
Q 228 556 234 611 
Q 241 666 253 698 
Q 266 731 284 742 
Q 303 753 331 753 
Q 366 753 433 714 
Q 500 675 600 628 
Q 700 581 833 540 
Q 966 500 1134 500 
Q 1241 500 1323 522 
Q 1406 544 1467 584 
Q 1528 625 1559 687 
Q 1591 750 1591 831 
Q 1591 925 1533 992 
Q 1475 1059 1379 1109 
Q 1284 1159 1164 1203 
Q 1044 1247 917 1300 
Q 791 1353 670 1422 
Q 550 1491 454 1591 
Q 359 1691 301 1831 
Q 244 1972 244 2169 
Q 244 2369 322 2536 
Q 400 2703 547 2822 
Q 694 2941 905 3006 
Q 1116 3072 1378 3072 
Q 1509 3072 1632 3053 
Q 1756 3034 1856 3006 
Q 1956 2978 2025 2945 
Q 2094 2913 2123 2889 
Q 2153 2866 2165 2842 
Q 2178 2819 2184 2786 
Q 2191 2753 2195 2704 
Q 2200 2656 2200 2584 
Q 2200 2500 2195 2447 
Q 2191 2394 2180 2362 
Q 2169 2331 2150 2320 
Q 2131 2309 2106 2309 
Q 2078 2309 2018 2342 
Q 1959 2375 1870 2412 
Q 1781 2450 1664 2483 
Q 1547 2516 1397 2516 
Q 1291 2516 1212 2494 
Q 1134 2472 1084 2431 
Q 1034 2391 1009 2336 
Q 984 2281 984 2219 
Q 984 2122 1043 2056 
Q 1103 1991 1200 1941 
Q 1297 1891 1420 1847 
Q 1544 1803 1670 1751 
Q 1797 1700 1920 1631 
Q 2044 1563 2141 1463 
Q 2238 1363 2297 1223 
Q 2356 1084 2356 894 
z
" transform="scale(0.015625)"/>
     </defs>
     <use xlink:href="#Calibri-Bold-50"/>
     <use xlink:href="#Calibri-Bold-72" x="53.222656"/>
     <use xlink:href="#Calibri-Bold-65" x="88.769531"/>
     <use xlink:href="#Calibri-Bold-63" x="139.111328"/>
     <use xlink:href="#Calibri-Bold-6f" x="180.957031"/>
     <use xlink:href="#Calibri-Bold-6e" x="234.716797"/>
     <use xlink:href="#Calibri-Bold-64" x="288.378906"/>
     <use xlink:href="#Calibri-Bold-69" x="342.041016"/>
     <use xlink:href="#Calibri-Bold-74" x="366.601562"/>
     <use xlink:href="#Calibri-Bold-69" x="401.269531"/>
     <use xlink:href="#Calibri-Bold-6f" x="425.830078"/>
     <use xlink:href="#Calibri-Bold-6e" x="479.589844"/>
     <use xlink:href="#Calibri-Bold-69" x="533.251953"/>
     <use xlink:href="#Calibri-Bold-6e" x="557.8125"/>
     <use xlink:href="#Calibri-Bold-67" x="611.474609"/>
     <use xlink:href="#Calibri-Bold-20" x="658.886719"/>
     <use xlink:href="#Calibri-Bold-63" x="681.494141"/>
     <use xlink:href="#Calibri-Bold-6f" x="723.339844"/>
     <use xlink:href="#Calibri-Bold-73" x="777.099609"/>
     <use xlink:href="#Calibri-Bold-74" x="816.992188"/>
    </g>
   </g>
  </g>
  <g id="axes_2">
   <g id="patch_8">
    <path d="M 284.143333 193.04875 
L 463.531667 193.04875 
L 463.531667 28.61875 
L 284.143333 28.61875 
z
" style="fill: #ffffff"/>
   </g>
   <g id="matplotlib.axis_3">
    <g id="xtick_5">
     <g id="line2d_15">
      <g>
       <use xlink:href="#m268dd733da" x="284.143333" y="193.04875" style="stroke: #000000; stroke-width: 0.8"/>
      </g>
     </g>
     <g id="text_15">
      <!-- 0.0 -->
      <g transform="translate(275.279583 209.570938) scale(0.14 -0.14)">
       <use xlink:href="#Calibri-30"/>
       <use xlink:href="#Calibri-2e" x="50.683594"/>
       <use xlink:href="#Calibri-30" x="75.927734"/>
      </g>
     </g>
    </g>
    <g id="xtick_6">
     <g id="line2d_16">
      <g>
       <use xlink:href="#m268dd733da" x="343.939444" y="193.04875" style="stroke: #000000; stroke-width: 0.8"/>
      </g>
     </g>
     <g id="text_16">
      <!-- 0.1 -->
      <g transform="translate(335.075694 209.570938) scale(0.14 -0.14)">
       <use xlink:href="#Calibri-30"/>
       <use xlink:href="#Calibri-2e" x="50.683594"/>
       <use xlink:href="#Calibri-31" x="75.927734"/>
      </g>
     </g>
    </g>
    <g id="xtick_7">
     <g id="line2d_17">
      <g>
       <use xlink:href="#m268dd733da" x="403.735556" y="193.04875" style="stroke: #000000; stroke-width: 0.8"/>
      </g>
     </g>
     <g id="text_17">
      <!-- 0.2 -->
      <g transform="translate(394.871806 209.570938) scale(0.14 -0.14)">
       <use xlink:href="#Calibri-30"/>
       <use xlink:href="#Calibri-2e" x="50.683594"/>
       <use xlink:href="#Calibri-32" x="75.927734"/>
      </g>
     </g>
    </g>
    <g id="xtick_8">
     <g id="line2d_18">
      <g>
       <use xlink:href="#m268dd733da" x="463.531667" y="193.04875" style="stroke: #000000; stroke-width: 0.8"/>
      </g>
     </g>
     <g id="text_18">
      <!-- 0.3 -->
      <g transform="translate(454.667917 209.570938) scale(0.14 -0.14)">
       <use xlink:href="#Calibri-30"/>
       <use xlink:href="#Calibri-2e" x="50.683594"/>
       <use xlink:href="#Calibri-33" x="75.927734"/>
      </g>
     </g>
    </g>
    <g id="text_19">
     <!-- Electricity cost ($/kWh) -->
     <g transform="translate(307.414062 226.470625) scale(0.14 -0.14)">
      <use xlink:href="#Calibri-45"/>
      <use xlink:href="#Calibri-6c" x="48.828125"/>
      <use xlink:href="#Calibri-65" x="71.777344"/>
      <use xlink:href="#Calibri-63" x="121.533203"/>
      <use xlink:href="#Calibri-74" x="163.818359"/>
      <use xlink:href="#Calibri-72" x="197.314453"/>
      <use xlink:href="#Calibri-69" x="232.177734"/>
      <use xlink:href="#Calibri-63" x="255.126953"/>
      <use xlink:href="#Calibri-69" x="297.412109"/>
      <use xlink:href="#Calibri-74" x="320.361328"/>
      <use xlink:href="#Calibri-79" x="353.857422"/>
      <use xlink:href="#Calibri-20" x="399.121094"/>
      <use xlink:href="#Calibri-63" x="421.728516"/>
      <use xlink:href="#Calibri-6f" x="464.013672"/>
      <use xlink:href="#Calibri-73" x="516.748047"/>
      <use xlink:href="#Calibri-74" x="555.859375"/>
      <use xlink:href="#Calibri-20" x="589.355469"/>
      <use xlink:href="#Calibri-28" x="611.962891"/>
      <use xlink:href="#Calibri-24" x="642.285156"/>
      <use xlink:href="#Calibri-2f" x="692.96875"/>
      <use xlink:href="#Calibri-6b" x="731.591797"/>
      <use xlink:href="#Calibri-57" x="777.050781"/>
      <use xlink:href="#Calibri-68" x="866.015625"/>
      <use xlink:href="#Calibri-29" x="918.554688"/>
     </g>
    </g>
   </g>
   <g id="matplotlib.axis_4">
    <g id="ytick_7">
     <g id="line2d_19">
      <g>
       <use xlink:href="#m2c336b72c8" x="284.143333" y="193.04875" style="stroke: #000000; stroke-width: 0.8"/>
      </g>
     </g>
     <g id="text_20">
      <!-- 0 -->
      <g transform="translate(270.047083 197.809844) scale(0.14 -0.14)">
       <use xlink:href="#Calibri-30"/>
      </g>
     </g>
    </g>
    <g id="ytick_8">
     <g id="line2d_20">
      <g>
       <use xlink:href="#m2c336b72c8" x="284.143333" y="160.16275" style="stroke: #000000; stroke-width: 0.8"/>
      </g>
     </g>
     <g id="text_21">
      <!-- 2 -->
      <g transform="translate(270.047083 164.923844) scale(0.14 -0.14)">
       <use xlink:href="#Calibri-32"/>
      </g>
     </g>
    </g>
    <g id="ytick_9">
     <g id="line2d_21">
      <g>
       <use xlink:href="#m2c336b72c8" x="284.143333" y="127.27675" style="stroke: #000000; stroke-width: 0.8"/>
      </g>
     </g>
     <g id="text_22">
      <!-- 4 -->
      <g transform="translate(270.047083 132.037844) scale(0.14 -0.14)">
       <use xlink:href="#Calibri-34"/>
      </g>
     </g>
    </g>
    <g id="ytick_10">
     <g id="line2d_22">
      <g>
       <use xlink:href="#m2c336b72c8" x="284.143333" y="94.39075" style="stroke: #000000; stroke-width: 0.8"/>
      </g>
     </g>
     <g id="text_23">
      <!-- 6 -->
      <g transform="translate(270.047083 99.151844) scale(0.14 -0.14)">
       <use xlink:href="#Calibri-36"/>
      </g>
     </g>
    </g>
    <g id="ytick_11">
     <g id="line2d_23">
      <g>
       <use xlink:href="#m2c336b72c8" x="284.143333" y="61.50475" style="stroke: #000000; stroke-width: 0.8"/>
      </g>
     </g>
     <g id="text_24">
      <!-- 8 -->
      <g transform="translate(270.047083 66.265844) scale(0.14 -0.14)">
       <use xlink:href="#Calibri-38"/>
      </g>
     </g>
    </g>
    <g id="ytick_12">
     <g id="line2d_24">
      <g>
       <use xlink:href="#m2c336b72c8" x="284.143333" y="28.61875" style="stroke: #000000; stroke-width: 0.8"/>
      </g>
     </g>
     <g id="text_25">
      <!-- 10 -->
      <g transform="translate(262.950833 33.379844) scale(0.14 -0.14)">
       <use xlink:href="#Calibri-31"/>
       <use xlink:href="#Calibri-30" x="50.683594"/>
      </g>
     </g>
    </g>
   </g>
   <g id="line2d_25">
    <path d="M 296.102556 155.268157 
L 308.061778 154.819601 
L 320.021 154.371044 
L 331.980222 153.922487 
L 343.939444 153.47393 
L 355.898667 153.025373 
L 367.857889 152.576816 
L 379.817111 152.128259 
L 391.776333 151.679703 
L 403.735556 151.231146 
L 415.694778 150.782589 
L 427.654 150.334032 
L 439.613222 149.885475 
L 451.572444 149.436918 
L 463.531667 148.988361 
" clip-path="url(#p5ce3141965)" style="fill: none; stroke: #d95f02; stroke-width: 2; stroke-linecap: square"/>
   </g>
   <g id="line2d_26">
    <path d="M 296.102556 163.581547 
L 308.061778 163.419963 
L 320.021 163.258379 
L 331.980222 163.096795 
L 343.939444 162.935211 
L 355.898667 162.773626 
L 367.857889 162.612042 
L 379.817111 162.450458 
L 391.776333 162.288874 
L 403.735556 162.12729 
L 415.694778 161.965706 
L 427.654 161.804122 
L 439.613222 161.642538 
L 451.572444 161.480954 
L 463.531667 161.31937 
" clip-path="url(#p5ce3141965)" style="fill: none; stroke: #1b9e77; stroke-width: 2; stroke-linecap: square"/>
   </g>
   <g id="line2d_27">
    <path d="M 296.102556 114.820195 
L 308.061778 111.921916 
L 320.021 109.023637 
L 331.980222 106.125358 
L 343.939444 103.22708 
L 355.898667 100.328801 
L 367.857889 97.430522 
L 379.817111 94.532244 
L 391.776333 91.633965 
L 403.735556 88.735686 
L 415.694778 85.837407 
L 427.654 82.939129 
L 439.613222 80.04085 
L 451.572444 77.142571 
L 463.531667 74.244292 
" clip-path="url(#p5ce3141965)" style="fill: none; stroke: #7570b3; stroke-width: 2; stroke-linecap: square"/>
   </g>
   <g id="line2d_28">
    <path d="M 386.334887 193.04875 
L 386.334887 28.61875 
" clip-path="url(#p5ce3141965)" style="fill: none; stroke-dasharray: 2.775,1.2; stroke-dashoffset: 0; stroke: #000000; stroke-width: 0.75"/>
   </g>
   <g id="patch_9">
    <path d="M 284.143333 193.04875 
L 284.143333 28.61875 
" style="fill: none; stroke: #000000; stroke-width: 0.8; stroke-linejoin: miter; stroke-linecap: square"/>
   </g>
   <g id="patch_10">
    <path d="M 463.531667 193.04875 
L 463.531667 28.61875 
" style="fill: none; stroke: #000000; stroke-width: 0.8; stroke-linejoin: miter; stroke-linecap: square"/>
   </g>
   <g id="patch_11">
    <path d="M 284.143333 193.04875 
L 463.531667 193.04875 
" style="fill: none; stroke: #000000; stroke-width: 0.8; stroke-linejoin: miter; stroke-linecap: square"/>
   </g>
   <g id="patch_12">
    <path d="M 284.143333 28.61875 
L 463.531667 28.61875 
" style="fill: none; stroke: #000000; stroke-width: 0.8; stroke-linejoin: miter; stroke-linecap: square"/>
   </g>
   <g id="patch_13">
    <path d="M 362.562048 61.50475 
Q 372.581986 61.50475 381.48389 61.50475 
" style="fill: none; stroke: #000000; stroke-linecap: round"/>
    <path d="M 375.88389 58.70475 
L 381.48389 61.50475 
L 375.88389 64.30475 
z
" style="stroke: #000000; stroke-linecap: round"/>
   </g>
   <g id="text_26">
    <!-- Baseline -->
    <g transform="translate(311.051583 65.021156) scale(0.14 -0.14)">
     <use xlink:href="#Calibri-42"/>
     <use xlink:href="#Calibri-61" x="54.394531"/>
     <use xlink:href="#Calibri-73" x="102.294922"/>
     <use xlink:href="#Calibri-65" x="141.40625"/>
     <use xlink:href="#Calibri-6c" x="191.162109"/>
     <use xlink:href="#Calibri-69" x="214.111328"/>
     <use xlink:href="#Calibri-6e" x="237.060547"/>
     <use xlink:href="#Calibri-65" x="289.599609"/>
    </g>
   </g>
   <g id="text_27">
    <!-- Reconditioning cost -->
    <g transform="translate(305.02575 18.61875) scale(0.168 -0.168)">
     <defs>
      <path id="Calibri-Bold-52" d="M 3441 106 
Q 3441 72 3428 48 
Q 3416 25 3369 9 
Q 3322 -6 3231 -12 
Q 3141 -19 2984 -19 
Q 2853 -19 2775 -12 
Q 2697 -6 2651 11 
Q 2606 28 2587 54 
Q 2569 81 2556 119 
L 2194 1022 
Q 2128 1175 2065 1294 
Q 2003 1413 1926 1492 
Q 1850 1572 1750 1612 
Q 1650 1653 1519 1653 
L 1263 1653 
L 1263 113 
Q 1263 81 1242 56 
Q 1222 31 1175 15 
Q 1128 0 1050 -9 
Q 972 -19 850 -19 
Q 731 -19 651 -9 
Q 572 0 525 15 
Q 478 31 459 56 
Q 441 81 441 113 
L 441 3784 
Q 441 3922 511 3983 
Q 581 4044 684 4044 
L 1731 4044 
Q 1891 4044 1994 4037 
Q 2097 4031 2181 4022 
Q 2425 3988 2620 3903 
Q 2816 3819 2952 3683 
Q 3088 3547 3159 3361 
Q 3231 3175 3231 2934 
Q 3231 2731 3179 2564 
Q 3128 2397 3028 2265 
Q 2928 2134 2781 2037 
Q 2634 1941 2447 1881 
Q 2538 1838 2617 1775 
Q 2697 1713 2767 1623 
Q 2838 1534 2900 1420 
Q 2963 1306 3022 1163 
L 3363 366 
Q 3409 247 3425 192 
Q 3441 138 3441 106 
z
M 2381 2850 
Q 2381 3050 2290 3187 
Q 2200 3325 1994 3381 
Q 1931 3397 1851 3406 
Q 1772 3416 1631 3416 
L 1263 3416 
L 1263 2269 
L 1681 2269 
Q 1856 2269 1987 2311 
Q 2119 2353 2206 2429 
Q 2294 2506 2337 2612 
Q 2381 2719 2381 2850 
z
" transform="scale(0.015625)"/>
     </defs>
     <use xlink:href="#Calibri-Bold-52"/>
     <use xlink:href="#Calibri-Bold-65" x="56.298828"/>
     <use xlink:href="#Calibri-Bold-63" x="106.640625"/>
     <use xlink:href="#Calibri-Bold-6f" x="148.486328"/>
     <use xlink:href="#Calibri-Bold-6e" x="202.246094"/>
     <use xlink:href="#Calibri-Bold-64" x="255.908203"/>
     <use xlink:href="#Calibri-Bold-69" x="309.570312"/>
     <use xlink:href="#Calibri-Bold-74" x="334.130859"/>
     <use xlink:href="#Calibri-Bold-69" x="368.798828"/>
     <use xlink:href="#Calibri-Bold-6f" x="393.359375"/>
     <use xlink:href="#Calibri-Bold-6e" x="447.119141"/>
     <use xlink:href="#Calibri-Bold-69" x="500.78125"/>
     <use xlink:href="#Calibri-Bold-6e" x="525.341797"/>
     <use xlink:href="#Calibri-Bold-67" x="579.003906"/>
     <use xlink:href="#Calibri-Bold-20" x="626.416016"/>
     <use xlink:href="#Calibri-Bold-63" x="649.023438"/>
     <use xlink:href="#Calibri-Bold-6f" x="690.869141"/>
     <use xlink:href="#Calibri-Bold-73" x="744.628906"/>
     <use xlink:href="#Calibri-Bold-74" x="784.521484"/>
    </g>
   </g>
  </g>
  <g id="axes_3">
   <g id="patch_14">
    <path d="M 508.707917 193.04875 
L 688.09625 193.04875 
L 688.09625 28.61875 
L 508.707917 28.61875 
z
" style="fill: #ffffff"/>
   </g>
   <g id="matplotlib.axis_5">
    <g id="xtick_9">
     <g id="line2d_29">
      <g>
       <use xlink:href="#m268dd733da" x="508.707917" y="193.04875" style="stroke: #000000; stroke-width: 0.8"/>
      </g>
     </g>
     <g id="text_28">
      <!-- 0.0 -->
      <g transform="translate(499.844167 209.570938) scale(0.14 -0.14)">
       <use xlink:href="#Calibri-30"/>
       <use xlink:href="#Calibri-2e" x="50.683594"/>
       <use xlink:href="#Calibri-30" x="75.927734"/>
      </g>
     </g>
    </g>
    <g id="xtick_10">
     <g id="line2d_30">
      <g>
       <use xlink:href="#m268dd733da" x="568.504028" y="193.04875" style="stroke: #000000; stroke-width: 0.8"/>
      </g>
     </g>
     <g id="text_29">
      <!-- 0.1 -->
      <g transform="translate(559.640278 209.570938) scale(0.14 -0.14)">
       <use xlink:href="#Calibri-30"/>
       <use xlink:href="#Calibri-2e" x="50.683594"/>
       <use xlink:href="#Calibri-31" x="75.927734"/>
      </g>
     </g>
    </g>
    <g id="xtick_11">
     <g id="line2d_31">
      <g>
       <use xlink:href="#m268dd733da" x="628.300139" y="193.04875" style="stroke: #000000; stroke-width: 0.8"/>
      </g>
     </g>
     <g id="text_30">
      <!-- 0.2 -->
      <g transform="translate(619.436389 209.570938) scale(0.14 -0.14)">
       <use xlink:href="#Calibri-30"/>
       <use xlink:href="#Calibri-2e" x="50.683594"/>
       <use xlink:href="#Calibri-32" x="75.927734"/>
      </g>
     </g>
    </g>
    <g id="xtick_12">
     <g id="line2d_32">
      <g>
       <use xlink:href="#m268dd733da" x="688.09625" y="193.04875" style="stroke: #000000; stroke-width: 0.8"/>
      </g>
     </g>
     <g id="text_31">
      <!-- 0.3 -->
      <g transform="translate(679.2325 209.570938) scale(0.14 -0.14)">
       <use xlink:href="#Calibri-30"/>
       <use xlink:href="#Calibri-2e" x="50.683594"/>
       <use xlink:href="#Calibri-33" x="75.927734"/>
      </g>
     </g>
    </g>
    <g id="text_32">
     <!-- Electricity cost ($/kWh) -->
     <g transform="translate(531.978646 226.470625) scale(0.14 -0.14)">
      <use xlink:href="#Calibri-45"/>
      <use xlink:href="#Calibri-6c" x="48.828125"/>
      <use xlink:href="#Calibri-65" x="71.777344"/>
      <use xlink:href="#Calibri-63" x="121.533203"/>
      <use xlink:href="#Calibri-74" x="163.818359"/>
      <use xlink:href="#Calibri-72" x="197.314453"/>
      <use xlink:href="#Calibri-69" x="232.177734"/>
      <use xlink:href="#Calibri-63" x="255.126953"/>
      <use xlink:href="#Calibri-69" x="297.412109"/>
      <use xlink:href="#Calibri-74" x="320.361328"/>
      <use xlink:href="#Calibri-79" x="353.857422"/>
      <use xlink:href="#Calibri-20" x="399.121094"/>
      <use xlink:href="#Calibri-63" x="421.728516"/>
      <use xlink:href="#Calibri-6f" x="464.013672"/>
      <use xlink:href="#Calibri-73" x="516.748047"/>
      <use xlink:href="#Calibri-74" x="555.859375"/>
      <use xlink:href="#Calibri-20" x="589.355469"/>
      <use xlink:href="#Calibri-28" x="611.962891"/>
      <use xlink:href="#Calibri-24" x="642.285156"/>
      <use xlink:href="#Calibri-2f" x="692.96875"/>
      <use xlink:href="#Calibri-6b" x="731.591797"/>
      <use xlink:href="#Calibri-57" x="777.050781"/>
      <use xlink:href="#Calibri-68" x="866.015625"/>
      <use xlink:href="#Calibri-29" x="918.554688"/>
     </g>
    </g>
   </g>
   <g id="matplotlib.axis_6">
    <g id="ytick_13">
     <g id="line2d_33">
      <g>
       <use xlink:href="#m2c336b72c8" x="508.707917" y="193.04875" style="stroke: #000000; stroke-width: 0.8"/>
      </g>
     </g>
     <g id="text_33">
      <!-- 0 -->
      <g transform="translate(494.611667 197.809844) scale(0.14 -0.14)">
       <use xlink:href="#Calibri-30"/>
      </g>
     </g>
    </g>
    <g id="ytick_14">
     <g id="line2d_34">
      <g>
       <use xlink:href="#m2c336b72c8" x="508.707917" y="160.16275" style="stroke: #000000; stroke-width: 0.8"/>
      </g>
     </g>
     <g id="text_34">
      <!-- 10 -->
      <g transform="translate(487.515417 164.923844) scale(0.14 -0.14)">
       <use xlink:href="#Calibri-31"/>
       <use xlink:href="#Calibri-30" x="50.683594"/>
      </g>
     </g>
    </g>
    <g id="ytick_15">
     <g id="line2d_35">
      <g>
       <use xlink:href="#m2c336b72c8" x="508.707917" y="127.27675" style="stroke: #000000; stroke-width: 0.8"/>
      </g>
     </g>
     <g id="text_35">
      <!-- 20 -->
      <g transform="translate(487.515417 132.037844) scale(0.14 -0.14)">
       <use xlink:href="#Calibri-32"/>
       <use xlink:href="#Calibri-30" x="50.683594"/>
      </g>
     </g>
    </g>
    <g id="ytick_16">
     <g id="line2d_36">
      <g>
       <use xlink:href="#m2c336b72c8" x="508.707917" y="94.39075" style="stroke: #000000; stroke-width: 0.8"/>
      </g>
     </g>
     <g id="text_36">
      <!-- 30 -->
      <g transform="translate(487.515417 99.151844) scale(0.14 -0.14)">
       <use xlink:href="#Calibri-33"/>
       <use xlink:href="#Calibri-30" x="50.683594"/>
      </g>
     </g>
    </g>
    <g id="ytick_17">
     <g id="line2d_37">
      <g>
       <use xlink:href="#m2c336b72c8" x="508.707917" y="61.50475" style="stroke: #000000; stroke-width: 0.8"/>
      </g>
     </g>
     <g id="text_37">
      <!-- 40 -->
      <g transform="translate(487.515417 66.265844) scale(0.14 -0.14)">
       <use xlink:href="#Calibri-34"/>
       <use xlink:href="#Calibri-30" x="50.683594"/>
      </g>
     </g>
    </g>
    <g id="ytick_18">
     <g id="line2d_38">
      <g>
       <use xlink:href="#m2c336b72c8" x="508.707917" y="28.61875" style="stroke: #000000; stroke-width: 0.8"/>
      </g>
     </g>
     <g id="text_38">
      <!-- 50 -->
      <g transform="translate(487.515417 33.379844) scale(0.14 -0.14)">
       <defs>
        <path id="Calibri-35" d="M 2869 1300 
Q 2869 975 2759 722 
Q 2650 469 2450 295 
Q 2250 122 1973 31 
Q 1697 -59 1359 -59 
Q 1172 -59 1003 -32 
Q 834 -6 703 33 
Q 572 72 487 109 
Q 403 147 379 169 
Q 356 191 347 209 
Q 338 228 330 254 
Q 322 281 319 322 
Q 316 363 316 419 
Q 316 472 320 514 
Q 325 556 337 582 
Q 350 609 367 621 
Q 384 634 406 634 
Q 438 634 503 595 
Q 569 556 680 511 
Q 791 466 955 425 
Q 1119 384 1344 384 
Q 1553 384 1728 434 
Q 1903 484 2029 590 
Q 2156 697 2228 858 
Q 2300 1019 2300 1250 
Q 2300 1444 2239 1592 
Q 2178 1741 2051 1839 
Q 1925 1938 1731 1986 
Q 1538 2034 1269 2034 
Q 1078 2034 940 2015 
Q 803 1997 684 1997 
Q 597 1997 559 2037 
Q 522 2078 522 2194 
L 522 3841 
Q 522 3944 570 3994 
Q 619 4044 709 4044 
L 2500 4044 
Q 2525 4044 2548 4030 
Q 2572 4016 2587 3987 
Q 2603 3959 2611 3915 
Q 2619 3872 2619 3813 
Q 2619 3700 2587 3637 
Q 2556 3575 2500 3575 
L 991 3575 
L 991 2441 
Q 1100 2456 1214 2459 
Q 1328 2463 1478 2463 
Q 1825 2463 2084 2380 
Q 2344 2297 2517 2145 
Q 2691 1994 2780 1778 
Q 2869 1563 2869 1300 
z
" transform="scale(0.015625)"/>
       </defs>
       <use xlink:href="#Calibri-35"/>
       <use xlink:href="#Calibri-30" x="50.683594"/>
      </g>
     </g>
    </g>
   </g>
   <g id="line2d_39">
    <path d="M 520.667139 174.589145 
L 532.626361 174.345608 
L 544.585583 174.102072 
L 556.544806 173.858536 
L 568.504028 173.615 
L 580.46325 173.371463 
L 592.422472 173.127927 
L 604.381694 172.884391 
L 616.340917 172.640855 
L 628.300139 172.397319 
L 640.259361 172.153782 
L 652.218583 171.910246 
L 664.177806 171.66671 
L 676.137028 171.423174 
L 688.09625 171.179638 
" clip-path="url(#p3e2b68c6cb)" style="fill: none; stroke: #d95f02; stroke-width: 2; stroke-linecap: square"/>
   </g>
   <g id="line2d_40">
    <path d="M 520.667139 174.644832 
L 532.626361 173.913365 
L 544.585583 173.181897 
L 556.544806 172.45043 
L 568.504028 171.718963 
L 580.46325 170.987495 
L 592.422472 170.256028 
L 604.381694 169.524561 
L 616.340917 168.793093 
L 628.300139 168.061626 
L 640.259361 167.330159 
L 652.218583 166.598691 
L 664.177806 165.867224 
L 676.137028 165.135757 
L 688.09625 164.404289 
" clip-path="url(#p3e2b68c6cb)" style="fill: none; stroke: #1b9e77; stroke-width: 2; stroke-linecap: square"/>
   </g>
   <g id="line2d_41">
    <path d="M 520.667139 108.144976 
L 532.626361 105.344134 
L 544.585583 102.543292 
L 556.544806 99.74245 
L 568.504028 96.941608 
L 580.46325 94.140766 
L 592.422472 91.339924 
L 604.381694 88.539082 
L 616.340917 85.73824 
L 628.300139 82.937398 
L 640.259361 80.136556 
L 652.218583 77.335714 
L 664.177806 74.534872 
L 676.137028 71.73403 
L 688.09625 68.933188 
" clip-path="url(#p3e2b68c6cb)" style="fill: none; stroke: #7570b3; stroke-width: 2; stroke-linecap: square"/>
   </g>
   <g id="line2d_42">
    <path d="M 610.899471 193.04875 
L 610.899471 28.61875 
" clip-path="url(#p3e2b68c6cb)" style="fill: none; stroke-dasharray: 2.775,1.2; stroke-dashoffset: 0; stroke: #000000; stroke-width: 0.75"/>
   </g>
   <g id="patch_15">
    <path d="M 508.707917 193.04875 
L 508.707917 28.61875 
" style="fill: none; stroke: #000000; stroke-width: 0.8; stroke-linejoin: miter; stroke-linecap: square"/>
   </g>
   <g id="patch_16">
    <path d="M 688.09625 193.04875 
L 688.09625 28.61875 
" style="fill: none; stroke: #000000; stroke-width: 0.8; stroke-linejoin: miter; stroke-linecap: square"/>
   </g>
   <g id="patch_17">
    <path d="M 508.707917 193.04875 
L 688.09625 193.04875 
" style="fill: none; stroke: #000000; stroke-width: 0.8; stroke-linejoin: miter; stroke-linecap: square"/>
   </g>
   <g id="patch_18">
    <path d="M 508.707917 28.61875 
L 688.09625 28.61875 
" style="fill: none; stroke: #000000; stroke-width: 0.8; stroke-linejoin: miter; stroke-linecap: square"/>
   </g>
   <g id="patch_19">
    <path d="M 587.126631 61.50475 
Q 597.146569 61.50475 606.048473 61.50475 
" style="fill: none; stroke: #000000; stroke-linecap: round"/>
    <path d="M 600.448473 58.70475 
L 606.048473 61.50475 
L 600.448473 64.30475 
z
" style="stroke: #000000; stroke-linecap: round"/>
   </g>
   <g id="text_39">
    <!-- Baseline -->
    <g transform="translate(535.616167 65.021156) scale(0.14 -0.14)">
     <use xlink:href="#Calibri-42"/>
     <use xlink:href="#Calibri-61" x="54.394531"/>
     <use xlink:href="#Calibri-73" x="102.294922"/>
     <use xlink:href="#Calibri-65" x="141.40625"/>
     <use xlink:href="#Calibri-6c" x="191.162109"/>
     <use xlink:href="#Calibri-69" x="214.111328"/>
     <use xlink:href="#Calibri-6e" x="237.060547"/>
     <use xlink:href="#Calibri-65" x="289.599609"/>
    </g>
   </g>
   <g id="text_40">
    <!-- Total system cost -->
    <g transform="translate(537.857771 18.61875) scale(0.168 -0.168)">
     <defs>
      <path id="Calibri-Bold-54" d="M 3131 3706 
Q 3131 3616 3123 3552 
Q 3116 3488 3100 3448 
Q 3084 3409 3061 3390 
Q 3038 3372 3009 3372 
L 1997 3372 
L 1997 113 
Q 1997 81 1976 56 
Q 1956 31 1909 15 
Q 1863 0 1783 -9 
Q 1703 -19 1584 -19 
Q 1466 -19 1386 -9 
Q 1306 0 1259 15 
Q 1213 31 1192 56 
Q 1172 81 1172 113 
L 1172 3372 
L 159 3372 
Q 128 3372 106 3390 
Q 84 3409 68 3448 
Q 53 3488 45 3552 
Q 38 3616 38 3706 
Q 38 3800 45 3865 
Q 53 3931 68 3970 
Q 84 4009 106 4026 
Q 128 4044 159 4044 
L 3009 4044 
Q 3038 4044 3061 4026 
Q 3084 4009 3100 3970 
Q 3116 3931 3123 3865 
Q 3131 3800 3131 3706 
z
" transform="scale(0.015625)"/>
      <path id="Calibri-Bold-61" d="M 2769 97 
Q 2769 53 2737 28 
Q 2706 3 2639 -8 
Q 2572 -19 2441 -19 
Q 2300 -19 2236 -8 
Q 2172 3 2145 28 
Q 2119 53 2119 97 
L 2119 319 
Q 1947 134 1726 31 
Q 1506 -72 1238 -72 
Q 1016 -72 830 -14 
Q 644 44 508 158 
Q 372 272 297 440 
Q 222 609 222 834 
Q 222 1078 317 1258 
Q 413 1438 602 1555 
Q 791 1672 1072 1728 
Q 1353 1784 1725 1784 
L 1997 1784 
L 1997 1953 
Q 1997 2084 1970 2182 
Q 1944 2281 1883 2347 
Q 1822 2413 1720 2444 
Q 1619 2475 1469 2475 
Q 1272 2475 1117 2431 
Q 963 2388 844 2334 
Q 725 2281 645 2237 
Q 566 2194 516 2194 
Q 481 2194 454 2216 
Q 428 2238 411 2278 
Q 394 2319 384 2378 
Q 375 2438 375 2509 
Q 375 2606 390 2662 
Q 406 2719 450 2764 
Q 494 2809 603 2864 
Q 713 2919 859 2966 
Q 1006 3013 1179 3042 
Q 1353 3072 1538 3072 
Q 1866 3072 2098 3008 
Q 2331 2944 2481 2811 
Q 2631 2678 2700 2468 
Q 2769 2259 2769 1972 
L 2769 97 
z
M 1997 1291 
L 1697 1291 
Q 1506 1291 1372 1262 
Q 1238 1234 1153 1178 
Q 1069 1122 1030 1042 
Q 991 963 991 859 
Q 991 684 1102 584 
Q 1213 484 1409 484 
Q 1575 484 1714 568 
Q 1853 653 1997 816 
L 1997 1291 
z
" transform="scale(0.015625)"/>
      <path id="Calibri-Bold-6c" d="M 1181 106 
Q 1181 75 1162 51 
Q 1144 28 1098 12 
Q 1053 -3 978 -11 
Q 903 -19 788 -19 
Q 672 -19 597 -11 
Q 522 -3 476 12 
Q 431 28 412 51 
Q 394 75 394 106 
L 394 4216 
Q 394 4247 412 4272 
Q 431 4297 476 4314 
Q 522 4331 597 4340 
Q 672 4350 788 4350 
Q 903 4350 978 4340 
Q 1053 4331 1098 4314 
Q 1144 4297 1162 4272 
Q 1181 4247 1181 4216 
L 1181 106 
z
" transform="scale(0.015625)"/>
      <path id="Calibri-Bold-79" d="M 2009 0 
L 1672 -988 
Q 1644 -1066 1519 -1100 
Q 1394 -1134 1153 -1134 
Q 1028 -1134 953 -1123 
Q 878 -1113 840 -1088 
Q 803 -1063 800 -1025 
Q 797 -988 819 -934 
L 1191 0 
Q 1150 19 1117 58 
Q 1084 97 1069 141 
L 109 2703 
Q 69 2813 69 2870 
Q 69 2928 106 2961 
Q 144 2994 233 3006 
Q 322 3019 469 3019 
Q 603 3019 681 3014 
Q 759 3009 803 2990 
Q 847 2972 869 2933 
Q 891 2894 913 2822 
L 1569 956 
L 1578 956 
L 2178 2859 
Q 2197 2941 2226 2967 
Q 2256 2994 2325 3006 
Q 2394 3019 2566 3019 
Q 2700 3019 2789 3006 
Q 2878 2994 2920 2959 
Q 2963 2925 2963 2867 
Q 2963 2809 2938 2731 
L 2009 0 
z
" transform="scale(0.015625)"/>
      <path id="Calibri-Bold-6d" d="M 4828 106 
Q 4828 75 4809 51 
Q 4791 28 4747 12 
Q 4703 -3 4628 -11 
Q 4553 -19 4438 -19 
Q 4319 -19 4244 -11 
Q 4169 -3 4123 12 
Q 4078 28 4061 51 
Q 4044 75 4044 106 
L 4044 1759 
Q 4044 1900 4017 2015 
Q 3991 2131 3936 2214 
Q 3881 2297 3798 2342 
Q 3716 2388 3600 2388 
Q 3459 2388 3315 2278 
Q 3172 2169 3003 1959 
L 3003 106 
Q 3003 75 2984 51 
Q 2966 28 2920 12 
Q 2875 -3 2800 -11 
Q 2725 -19 2613 -19 
Q 2497 -19 2422 -11 
Q 2347 -3 2301 12 
Q 2256 28 2237 51 
Q 2219 75 2219 106 
L 2219 1759 
Q 2219 1900 2192 2015 
Q 2166 2131 2112 2214 
Q 2059 2297 1975 2342 
Q 1891 2388 1778 2388 
Q 1634 2388 1490 2278 
Q 1347 2169 1181 1959 
L 1181 106 
Q 1181 75 1162 51 
Q 1144 28 1098 12 
Q 1053 -3 978 -11 
Q 903 -19 788 -19 
Q 672 -19 597 -11 
Q 522 -3 476 12 
Q 431 28 412 51 
Q 394 75 394 106 
L 394 2894 
Q 394 2925 409 2948 
Q 425 2972 465 2987 
Q 506 3003 570 3011 
Q 634 3019 731 3019 
Q 831 3019 897 3011 
Q 963 3003 998 2987 
Q 1034 2972 1050 2948 
Q 1066 2925 1066 2894 
L 1066 2572 
Q 1297 2822 1526 2947 
Q 1756 3072 2006 3072 
Q 2178 3072 2315 3036 
Q 2453 3000 2561 2933 
Q 2669 2866 2747 2772 
Q 2825 2678 2878 2563 
Q 3003 2697 3123 2794 
Q 3244 2891 3361 2952 
Q 3478 3013 3595 3042 
Q 3713 3072 3834 3072 
Q 4113 3072 4303 2978 
Q 4494 2884 4611 2723 
Q 4728 2563 4778 2347 
Q 4828 2131 4828 1891 
L 4828 106 
z
" transform="scale(0.015625)"/>
     </defs>
     <use xlink:href="#Calibri-Bold-54"/>
     <use xlink:href="#Calibri-Bold-6f" x="49.511719"/>
     <use xlink:href="#Calibri-Bold-74" x="103.271484"/>
     <use xlink:href="#Calibri-Bold-61" x="137.939453"/>
     <use xlink:href="#Calibri-Bold-6c" x="187.304688"/>
     <use xlink:href="#Calibri-Bold-20" x="211.865234"/>
     <use xlink:href="#Calibri-Bold-73" x="234.472656"/>
     <use xlink:href="#Calibri-Bold-79" x="274.365234"/>
     <use xlink:href="#Calibri-Bold-73" x="321.728516"/>
     <use xlink:href="#Calibri-Bold-74" x="361.621094"/>
     <use xlink:href="#Calibri-Bold-65" x="396.289062"/>
     <use xlink:href="#Calibri-Bold-6d" x="446.630859"/>
     <use xlink:href="#Calibri-Bold-20" x="527.978516"/>
     <use xlink:href="#Calibri-Bold-63" x="550.585938"/>
     <use xlink:href="#Calibri-Bold-6f" x="592.431641"/>
     <use xlink:href="#Calibri-Bold-73" x="646.191406"/>
     <use xlink:href="#Calibri-Bold-74" x="686.083984"/>
    </g>
   </g>
  </g>
  <g id="legend_1">
   <g id="patch_20">
    <path d="M 118.959219 274.575938 
L 585.200781 274.575938 
L 585.200781 251.08 
L 118.959219 251.08 
z
" style="fill: #ffffff; opacity: 0.8; stroke: #cccccc; stroke-linejoin: miter"/>
   </g>
   <g id="line2d_43">
    <path d="M 124.559219 261.58 
L 138.559219 261.58 
L 152.559219 261.58 
" style="fill: none; stroke: #d95f02; stroke-width: 2; stroke-linecap: square"/>
   </g>
   <g id="text_41">
    <!-- Compr. hydrogen -->
    <g transform="translate(163.759219 266.48) scale(0.14 -0.14)">
     <defs>
      <path id="Calibri-43" d="M 3238 572 
Q 3238 522 3234 484 
Q 3231 447 3223 419 
Q 3216 391 3203 369 
Q 3191 347 3159 315 
Q 3128 284 3028 220 
Q 2928 156 2779 95 
Q 2631 34 2439 -8 
Q 2247 -50 2019 -50 
Q 1625 -50 1308 81 
Q 991 213 767 469 
Q 544 725 423 1101 
Q 303 1478 303 1969 
Q 303 2472 433 2865 
Q 563 3259 797 3532 
Q 1031 3806 1357 3950 
Q 1684 4094 2081 4094 
Q 2256 4094 2422 4061 
Q 2588 4028 2728 3978 
Q 2869 3928 2978 3862 
Q 3088 3797 3130 3755 
Q 3172 3713 3184 3691 
Q 3197 3669 3205 3639 
Q 3213 3609 3217 3568 
Q 3222 3528 3222 3472 
Q 3222 3409 3215 3365 
Q 3209 3322 3196 3292 
Q 3184 3263 3167 3248 
Q 3150 3234 3125 3234 
Q 3081 3234 3003 3295 
Q 2925 3356 2801 3429 
Q 2678 3503 2501 3564 
Q 2325 3625 2078 3625 
Q 1809 3625 1589 3517 
Q 1369 3409 1212 3200 
Q 1056 2991 970 2689 
Q 884 2388 884 2000 
Q 884 1616 967 1320 
Q 1050 1025 1204 826 
Q 1359 628 1584 526 
Q 1809 425 2094 425 
Q 2334 425 2514 484 
Q 2694 544 2820 617 
Q 2947 691 3028 750 
Q 3109 809 3156 809 
Q 3178 809 3193 800 
Q 3209 791 3218 764 
Q 3228 738 3233 691 
Q 3238 644 3238 572 
z
" transform="scale(0.015625)"/>
      <path id="Calibri-6d" d="M 4650 78 
Q 4650 53 4637 36 
Q 4625 19 4597 6 
Q 4569 -6 4519 -12 
Q 4469 -19 4394 -19 
Q 4316 -19 4266 -12 
Q 4216 -6 4186 6 
Q 4156 19 4143 36 
Q 4131 53 4131 78 
L 4131 1788 
Q 4131 1966 4100 2112 
Q 4069 2259 4000 2365 
Q 3931 2472 3825 2528 
Q 3719 2584 3575 2584 
Q 3397 2584 3217 2446 
Q 3038 2309 2822 2044 
L 2822 78 
Q 2822 53 2809 36 
Q 2797 19 2767 6 
Q 2738 -6 2688 -12 
Q 2638 -19 2563 -19 
Q 2491 -19 2439 -12 
Q 2388 -6 2358 6 
Q 2328 19 2317 36 
Q 2306 53 2306 78 
L 2306 1788 
Q 2306 1966 2272 2112 
Q 2238 2259 2169 2365 
Q 2100 2472 1995 2528 
Q 1891 2584 1747 2584 
Q 1569 2584 1387 2446 
Q 1206 2309 994 2044 
L 994 78 
Q 994 53 981 36 
Q 969 19 941 6 
Q 913 -6 863 -12 
Q 813 -19 734 -19 
Q 659 -19 609 -12 
Q 559 -6 529 6 
Q 500 19 489 36 
Q 478 53 478 78 
L 478 2891 
Q 478 2916 487 2933 
Q 497 2950 525 2964 
Q 553 2978 597 2983 
Q 641 2988 713 2988 
Q 781 2988 826 2983 
Q 872 2978 897 2964 
Q 922 2950 933 2933 
Q 944 2916 944 2891 
L 944 2519 
Q 1181 2784 1404 2907 
Q 1628 3031 1856 3031 
Q 2031 3031 2170 2990 
Q 2309 2950 2415 2876 
Q 2522 2803 2597 2701 
Q 2672 2600 2722 2475 
Q 2863 2628 2989 2734 
Q 3116 2841 3233 2906 
Q 3350 2972 3461 3001 
Q 3572 3031 3684 3031 
Q 3956 3031 4140 2936 
Q 4325 2841 4439 2681 
Q 4553 2522 4601 2308 
Q 4650 2094 4650 1856 
L 4650 78 
z
" transform="scale(0.015625)"/>
      <path id="Calibri-70" d="M 3066 1528 
Q 3066 1159 2986 865 
Q 2906 572 2751 367 
Q 2597 163 2369 52 
Q 2141 -59 1847 -59 
Q 1722 -59 1615 -34 
Q 1509 -9 1407 44 
Q 1306 97 1206 178 
Q 1106 259 994 369 
L 994 -1038 
Q 994 -1063 981 -1081 
Q 969 -1100 941 -1112 
Q 913 -1125 863 -1131 
Q 813 -1138 734 -1138 
Q 659 -1138 609 -1131 
Q 559 -1125 529 -1112 
Q 500 -1100 489 -1081 
Q 478 -1063 478 -1038 
L 478 2891 
Q 478 2919 487 2936 
Q 497 2953 525 2965 
Q 553 2978 597 2983 
Q 641 2988 703 2988 
Q 769 2988 811 2983 
Q 853 2978 881 2965 
Q 909 2953 920 2936 
Q 931 2919 931 2891 
L 931 2513 
Q 1059 2644 1178 2741 
Q 1297 2838 1417 2902 
Q 1538 2966 1664 2998 
Q 1791 3031 1931 3031 
Q 2238 3031 2453 2912 
Q 2669 2794 2805 2587 
Q 2941 2381 3003 2107 
Q 3066 1834 3066 1528 
z
M 2522 1469 
Q 2522 1684 2489 1886 
Q 2456 2088 2376 2244 
Q 2297 2400 2162 2494 
Q 2028 2588 1828 2588 
Q 1728 2588 1631 2558 
Q 1534 2528 1434 2464 
Q 1334 2400 1225 2295 
Q 1116 2191 994 2038 
L 994 919 
Q 1206 659 1397 521 
Q 1588 384 1797 384 
Q 1991 384 2130 478 
Q 2269 572 2355 728 
Q 2441 884 2481 1078 
Q 2522 1272 2522 1469 
z
" transform="scale(0.015625)"/>
     </defs>
     <use xlink:href="#Calibri-43"/>
     <use xlink:href="#Calibri-6f" x="53.320312"/>
     <use xlink:href="#Calibri-6d" x="106.054688"/>
     <use xlink:href="#Calibri-70" x="185.9375"/>
     <use xlink:href="#Calibri-72" x="238.476562"/>
     <use xlink:href="#Calibri-2e" x="273.339844"/>
     <use xlink:href="#Calibri-20" x="298.583984"/>
     <use xlink:href="#Calibri-68" x="321.191406"/>
     <use xlink:href="#Calibri-79" x="373.730469"/>
     <use xlink:href="#Calibri-64" x="418.994141"/>
     <use xlink:href="#Calibri-72" x="471.533203"/>
     <use xlink:href="#Calibri-6f" x="506.396484"/>
     <use xlink:href="#Calibri-67" x="559.130859"/>
     <use xlink:href="#Calibri-65" x="606.201172"/>
     <use xlink:href="#Calibri-6e" x="655.957031"/>
    </g>
   </g>
   <g id="line2d_44">
    <path d="M 290.955781 261.58 
L 304.955781 261.58 
L 318.955781 261.58 
" style="fill: none; stroke: #1b9e77; stroke-width: 2; stroke-linecap: square"/>
   </g>
   <g id="text_42">
    <!-- Liq. hydrogen -->
    <g transform="translate(330.155781 266.48) scale(0.14 -0.14)">
     <defs>
      <path id="Calibri-71" d="M 2888 -1038 
Q 2888 -1063 2873 -1081 
Q 2859 -1100 2831 -1112 
Q 2803 -1125 2753 -1131 
Q 2703 -1138 2628 -1138 
Q 2550 -1138 2501 -1131 
Q 2453 -1125 2422 -1112 
Q 2391 -1100 2380 -1081 
Q 2369 -1063 2369 -1038 
L 2369 403 
Q 2241 275 2125 186 
Q 2009 97 1896 42 
Q 1784 -13 1670 -36 
Q 1556 -59 1434 -59 
Q 1128 -59 912 61 
Q 697 181 561 386 
Q 425 591 362 867 
Q 300 1144 300 1450 
Q 300 1813 378 2105 
Q 456 2397 611 2603 
Q 766 2809 992 2920 
Q 1219 3031 1516 3031 
Q 1641 3031 1750 3004 
Q 1859 2978 1967 2920 
Q 2075 2863 2186 2770 
Q 2297 2678 2428 2550 
L 2428 2891 
Q 2428 2919 2440 2936 
Q 2453 2953 2481 2965 
Q 2509 2978 2553 2983 
Q 2597 2988 2663 2988 
Q 2725 2988 2769 2983 
Q 2813 2978 2839 2965 
Q 2866 2953 2877 2936 
Q 2888 2919 2888 2891 
L 2888 -1038 
z
M 2369 2056 
Q 2159 2316 1964 2452 
Q 1769 2588 1556 2588 
Q 1359 2588 1221 2494 
Q 1084 2400 998 2247 
Q 913 2094 873 1900 
Q 834 1706 834 1506 
Q 834 1291 867 1087 
Q 900 884 981 728 
Q 1063 572 1197 476 
Q 1331 381 1534 381 
Q 1638 381 1733 409 
Q 1828 438 1928 503 
Q 2028 569 2137 673 
Q 2247 778 2369 931 
L 2369 2056 
z
" transform="scale(0.015625)"/>
     </defs>
     <use xlink:href="#Calibri-4c"/>
     <use xlink:href="#Calibri-69" x="42.041016"/>
     <use xlink:href="#Calibri-71" x="64.990234"/>
     <use xlink:href="#Calibri-2e" x="117.529297"/>
     <use xlink:href="#Calibri-20" x="142.773438"/>
     <use xlink:href="#Calibri-68" x="165.380859"/>
     <use xlink:href="#Calibri-79" x="217.919922"/>
     <use xlink:href="#Calibri-64" x="263.183594"/>
     <use xlink:href="#Calibri-72" x="315.722656"/>
     <use xlink:href="#Calibri-6f" x="350.585938"/>
     <use xlink:href="#Calibri-67" x="403.320312"/>
     <use xlink:href="#Calibri-65" x="450.390625"/>
     <use xlink:href="#Calibri-6e" x="500.146484"/>
    </g>
   </g>
   <g id="line2d_45">
    <path d="M 435.538594 261.58 
L 449.538594 261.58 
L 463.538594 261.58 
" style="fill: none; stroke: #7570b3; stroke-width: 2; stroke-linecap: square"/>
   </g>
   <g id="text_43">
    <!-- LOHC - formic acid -->
    <g transform="translate(474.738594 266.48) scale(0.14 -0.14)">
     <defs>
      <path id="Calibri-4f" d="M 3925 2069 
Q 3925 1578 3809 1184 
Q 3694 791 3464 514 
Q 3234 238 2887 89 
Q 2541 -59 2078 -59 
Q 1622 -59 1289 77 
Q 956 213 739 472 
Q 522 731 415 1115 
Q 309 1500 309 2000 
Q 309 2478 425 2868 
Q 541 3259 772 3532 
Q 1003 3806 1350 3954 
Q 1697 4103 2159 4103 
Q 2606 4103 2937 3968 
Q 3269 3834 3489 3576 
Q 3709 3319 3817 2939 
Q 3925 2559 3925 2069 
z
M 3359 2031 
Q 3359 2375 3298 2670 
Q 3238 2966 3095 3183 
Q 2953 3400 2715 3522 
Q 2478 3644 2128 3644 
Q 1778 3644 1540 3512 
Q 1303 3381 1154 3162 
Q 1006 2944 942 2651 
Q 878 2359 878 2038 
Q 878 1681 937 1381 
Q 997 1081 1137 864 
Q 1278 647 1514 526 
Q 1750 406 2106 406 
Q 2459 406 2700 537 
Q 2941 669 3087 892 
Q 3234 1116 3296 1409 
Q 3359 1703 3359 2031 
z
" transform="scale(0.015625)"/>
      <path id="Calibri-48" d="M 3450 81 
Q 3450 56 3437 37 
Q 3425 19 3394 8 
Q 3363 -3 3311 -11 
Q 3259 -19 3184 -19 
Q 3103 -19 3053 -11 
Q 3003 -3 2972 8 
Q 2941 19 2928 37 
Q 2916 56 2916 81 
L 2916 1875 
L 1075 1875 
L 1075 81 
Q 1075 56 1062 37 
Q 1050 19 1019 8 
Q 988 -3 936 -11 
Q 884 -19 806 -19 
Q 731 -19 678 -11 
Q 625 -3 594 8 
Q 563 19 550 37 
Q 538 56 538 81 
L 538 3963 
Q 538 3988 550 4006 
Q 563 4025 594 4036 
Q 625 4047 678 4055 
Q 731 4063 806 4063 
Q 884 4063 936 4055 
Q 988 4047 1019 4036 
Q 1050 4025 1062 4006 
Q 1075 3988 1075 3963 
L 1075 2344 
L 2916 2344 
L 2916 3963 
Q 2916 3988 2928 4006 
Q 2941 4025 2972 4036 
Q 3003 4047 3053 4055 
Q 3103 4063 3184 4063 
Q 3259 4063 3311 4055 
Q 3363 4047 3394 4036 
Q 3425 4025 3437 4006 
Q 3450 3988 3450 3963 
L 3450 81 
z
" transform="scale(0.015625)"/>
      <path id="Calibri-2d" d="M 1744 1578 
Q 1744 1456 1716 1409 
Q 1688 1363 1634 1363 
L 328 1363 
Q 272 1363 244 1411 
Q 216 1459 216 1578 
Q 216 1697 244 1744 
Q 272 1791 328 1791 
L 1634 1791 
Q 1659 1791 1679 1781 
Q 1700 1772 1714 1745 
Q 1728 1719 1736 1678 
Q 1744 1638 1744 1578 
z
" transform="scale(0.015625)"/>
     </defs>
     <use xlink:href="#Calibri-4c"/>
     <use xlink:href="#Calibri-4f" x="39.791016"/>
     <use xlink:href="#Calibri-48" x="106.001953"/>
     <use xlink:href="#Calibri-43" x="168.306641"/>
     <use xlink:href="#Calibri-20" x="221.626953"/>
     <use xlink:href="#Calibri-2d" x="244.234375"/>
     <use xlink:href="#Calibri-20" x="274.849609"/>
     <use xlink:href="#Calibri-66" x="297.457031"/>
     <use xlink:href="#Calibri-6f" x="327.974609"/>
     <use xlink:href="#Calibri-72" x="380.708984"/>
     <use xlink:href="#Calibri-6d" x="415.572266"/>
     <use xlink:href="#Calibri-69" x="495.455078"/>
     <use xlink:href="#Calibri-63" x="518.404297"/>
     <use xlink:href="#Calibri-20" x="560.689453"/>
     <use xlink:href="#Calibri-61" x="583.296875"/>
     <use xlink:href="#Calibri-63" x="631.197266"/>
     <use xlink:href="#Calibri-69" x="673.482422"/>
     <use xlink:href="#Calibri-64" x="696.431641"/>
    </g>
   </g>
  </g>
 </g>
 <defs>
  <clipPath id="p6b1e0270b4">
   <rect x="59.57875" y="28.61875" width="179.388333" height="164.43"/>
  </clipPath>
  <clipPath id="p5ce3141965">
   <rect x="284.143333" y="28.61875" width="179.388333" height="164.43"/>
  </clipPath>
  <clipPath id="p3e2b68c6cb">
   <rect x="508.707917" y="28.61875" width="179.388333" height="164.43"/>
  </clipPath>
 </defs>
</svg>
